<svg width="1304" height="502" viewBox="0 0 1304 502" fill="none" xmlns="http://www.w3.org/2000/svg">
<rect width="1304" height="502" fill="black"/>
<g clip-path="url(#clip0_0_1)">
<rect width="1304" height="502" fill="white"/>
<rect width="1304" height="502" fill="#C7C7C7"/>
<rect y="-200" width="1304" height="502" fill="#282828"/>
<rect y="-260" width="1304" height="502" fill="#FF0505"/>
<rect x="573" y="209" width="120" height="120" rx="60" fill="black"/>
<rect x="583" y="219" width="100" height="100" rx="50" fill="#F2ECEC"/>
<rect x="598" y="234" width="70" height="70" rx="35" fill="black"/>
<rect x="608" y="244" width="50" height="50" rx="25" fill="white"/>
<path d="M282.807 91.0488C280.873 101.361 277.826 111.381 273.666 121.107C269.506 130.775 264.672 139.945 259.164 148.617C253.715 157.23 247.768 165.258 241.322 172.699C234.936 180.141 228.52 186.791 222.074 192.65C215.688 198.451 209.506 203.373 203.529 207.416C197.553 211.459 192.25 214.418 187.621 216.293C186.977 216.586 186.391 216.762 185.863 216.82C185.395 216.938 185.072 216.996 184.896 216.996C183.725 216.996 182.494 216.527 181.205 215.59C179.975 214.652 178.773 213.568 177.602 212.338C176.488 211.107 175.492 209.877 174.613 208.646C173.793 207.416 173.207 206.479 172.855 205.834C172.562 205.365 172.27 204.662 171.977 203.725C171.684 202.846 171.537 201.82 171.537 200.648C171.537 197.602 171.859 193.5 172.504 188.344C173.148 183.129 174.086 177.182 175.316 170.502C176.547 163.822 177.982 156.557 179.623 148.705C181.322 140.854 183.227 132.738 185.336 124.359C187.445 115.98 189.701 107.484 192.104 98.8711C194.506 90.1992 197.025 81.7617 199.662 73.5586C200.541 74.4961 201.625 75.7266 202.914 77.25C204.203 78.7734 205.551 80.4141 206.957 82.1719C208.363 83.8711 209.74 85.5996 211.088 87.3574C212.494 89.1152 213.725 90.6973 214.779 92.1035C215.893 93.5098 216.771 94.6816 217.416 95.6191C218.061 96.498 218.383 96.9375 218.383 96.9375C215.219 106.195 212.26 115.482 209.506 124.799C206.811 134.115 204.262 143.256 201.859 152.221C199.516 161.127 197.318 169.74 195.268 178.061C193.217 186.381 191.312 194.174 189.555 201.439C196.469 197.221 202.943 192.211 208.979 186.41C215.072 180.609 220.668 174.311 225.766 167.514C230.863 160.658 235.404 153.451 239.389 145.893C243.432 138.275 246.83 130.6 249.584 122.865C252.396 115.072 254.535 107.367 256 99.75C257.465 92.0742 258.197 84.7207 258.197 77.6895C258.197 75.6973 258.109 73.998 257.934 72.5918C257.816 71.127 257.67 69.8965 257.494 68.9004C257.318 67.9043 257.143 67.1426 256.967 66.6152C256.85 66.0293 256.762 65.5898 256.703 65.2969L282.807 91.0488ZM315.062 193.266C315.062 193.617 315.238 193.793 315.59 193.793C316.117 193.793 316.996 193.412 318.227 192.65C319.457 191.889 320.863 190.922 322.445 189.75C324.027 188.578 325.697 187.26 327.455 185.795C329.271 184.33 331 182.895 332.641 181.488C334.281 180.082 335.746 178.793 337.035 177.621C338.383 176.449 339.408 175.541 340.111 174.896C340.639 175.424 341.283 176.127 342.045 177.006C342.865 177.885 343.598 178.676 344.242 179.379C342.836 180.668 341.137 182.25 339.145 184.125C337.211 185.941 335.102 187.846 332.816 189.838C330.59 191.83 328.275 193.822 325.873 195.814C323.471 197.748 321.127 199.477 318.842 201C316.557 202.523 314.389 203.754 312.338 204.691C310.287 205.688 308.5 206.186 306.977 206.186C305.922 206.186 304.75 205.98 303.461 205.57C302.23 205.16 301.088 204.574 300.033 203.812C298.979 203.109 298.1 202.26 297.396 201.264C296.693 200.268 296.342 199.154 296.342 197.924C296.342 197.455 296.312 196.898 296.254 196.254C296.254 195.551 296.312 194.672 296.43 193.617C296.547 192.504 296.781 191.186 297.133 189.662C297.484 188.08 298.012 186.146 298.715 183.861C296.781 185.912 294.496 188.051 291.859 190.277C289.281 192.504 286.557 194.613 283.686 196.605C280.814 198.598 277.914 200.385 274.984 201.967C272.113 203.607 269.447 204.838 266.986 205.658C266.693 205.775 266.459 205.834 266.283 205.834C266.107 205.834 265.932 205.834 265.756 205.834C265.17 205.834 264.408 205.541 263.471 204.955C262.475 204.369 261.508 203.578 260.57 202.582C259.633 201.645 258.842 200.561 258.197 199.33C257.494 198.1 257.143 196.869 257.143 195.639C257.143 195.287 257.318 194.115 257.67 192.123C258.021 190.131 258.871 187.611 260.219 184.564C261.508 181.459 263.441 178.002 266.02 174.193C268.598 170.326 272.113 166.371 276.566 162.328C278.852 160.277 281.312 158.344 283.949 156.527C286.176 155.004 288.725 153.451 291.596 151.869C294.467 150.287 297.484 149.027 300.648 148.09C300.766 148.09 300.854 148.061 300.912 148.002C301.029 147.943 301.176 147.973 301.352 148.09C302.055 148.324 302.875 148.705 303.812 149.232C304.809 149.701 305.775 150.229 306.713 150.814C307.709 151.342 308.559 151.898 309.262 152.484C310.023 153.012 310.521 153.451 310.756 153.803C310.814 153.92 310.814 154.008 310.756 154.066L310.58 154.242C307.943 155.648 305.453 157.23 303.109 158.988C300.766 160.688 298.686 162.299 296.869 163.822C294.76 165.639 292.797 167.426 290.98 169.184C286.703 173.402 283.744 177.064 282.104 180.17C280.463 183.217 279.643 185.414 279.643 186.762C279.643 187.758 280.053 188.256 280.873 188.256C281.693 188.256 282.719 187.934 283.949 187.289C285.238 186.586 286.674 185.678 288.256 184.564C289.838 183.393 291.566 182.045 293.441 180.521C295.375 178.939 297.367 177.299 299.418 175.6C301.234 174.135 302.992 172.553 304.691 170.854C306.156 169.447 307.68 167.836 309.262 166.02C310.844 164.203 312.191 162.357 313.305 160.482C313.305 160.424 313.334 160.365 313.393 160.307C313.451 160.248 313.539 160.248 313.656 160.307C314.301 160.775 315.033 161.566 315.854 162.68C316.674 163.734 317.436 164.906 318.139 166.195C318.842 167.484 319.428 168.744 319.896 169.975C320.424 171.146 320.688 172.055 320.688 172.699C319.34 175.453 318.285 177.973 317.523 180.258C316.82 182.484 316.264 184.447 315.854 186.146C315.502 187.846 315.268 189.311 315.15 190.541C315.092 191.713 315.062 192.621 315.062 193.266ZM347.494 207.504C346.439 207.504 345.238 207.152 343.891 206.449C342.543 205.805 341.166 204.896 339.76 203.725C338.354 202.611 337.006 201.293 335.717 199.77C334.369 198.188 333.256 196.547 332.377 194.848C332.025 194.203 331.791 193.471 331.674 192.65C331.557 191.83 331.498 190.775 331.498 189.486C331.498 186.146 332.025 182.807 333.08 179.467C334.076 176.068 335.482 172.846 337.299 169.799C339.115 166.752 341.312 163.91 343.891 161.273C346.41 158.578 349.164 156.264 352.152 154.33C355.141 152.396 358.334 150.873 361.732 149.76C365.131 148.646 368.588 148.09 372.104 148.09C372.631 148.09 373.334 148.383 374.213 148.969C375.15 149.496 376.146 150.229 377.201 151.166C378.256 152.104 379.311 153.158 380.365 154.33C381.479 155.502 382.475 156.703 383.354 157.934C384.232 159.105 384.936 160.277 385.463 161.449C386.049 162.562 386.342 163.559 386.342 164.438C386.049 165.551 385.141 166.781 383.617 168.129C382.094 169.418 380.277 170.648 378.168 171.82C376.117 172.934 373.949 173.871 371.664 174.633C369.379 175.395 367.387 175.775 365.688 175.775C364.691 175.775 364.193 175.482 364.193 174.896C364.193 174.252 364.633 173.314 365.512 172.084C366.391 170.795 367.357 169.418 368.412 167.953C369.525 166.43 370.521 164.936 371.4 163.471C372.279 161.947 372.719 160.658 372.719 159.604C372.719 159.076 372.572 158.637 372.279 158.285C372.045 157.934 371.693 157.758 371.225 157.758C369.936 157.758 368.588 158.344 367.182 159.516C365.775 160.688 364.369 162.24 362.963 164.174C361.557 166.107 360.209 168.334 358.92 170.854C357.631 173.314 356.488 175.863 355.492 178.5C354.555 181.137 353.793 183.773 353.207 186.41C352.621 189.047 352.328 191.449 352.328 193.617C352.328 194.906 352.709 195.814 353.471 196.342C354.232 196.811 355.404 197.045 356.986 197.045C360.912 197.045 364.691 196.4 368.324 195.111C372.016 193.764 375.531 192.064 378.871 190.014C382.27 187.904 385.492 185.561 388.539 182.982C391.586 180.404 394.457 177.826 397.152 175.248C397.797 176.01 398.588 176.771 399.525 177.533C400.463 178.236 401.166 178.852 401.635 179.379C398.002 183.188 394.135 186.82 390.033 190.277C385.99 193.676 381.713 196.664 377.201 199.242C372.689 201.762 367.943 203.754 362.963 205.219C358.041 206.742 352.885 207.504 347.494 207.504ZM446.898 193.266C446.898 193.617 447.074 193.793 447.426 193.793C447.953 193.793 448.832 193.412 450.062 192.65C451.293 191.889 452.699 190.922 454.281 189.75C455.863 188.578 457.533 187.26 459.291 185.795C461.107 184.33 462.836 182.895 464.477 181.488C466.117 180.082 467.582 178.793 468.871 177.621C470.219 176.449 471.244 175.541 471.947 174.896C472.475 175.424 473.119 176.127 473.881 177.006C474.701 177.885 475.434 178.676 476.078 179.379C474.672 180.668 472.973 182.25 470.98 184.125C469.047 185.941 466.938 187.846 464.652 189.838C462.426 191.83 460.111 193.822 457.709 195.814C455.307 197.748 452.963 199.477 450.678 201C448.393 202.523 446.225 203.754 444.174 204.691C442.123 205.688 440.336 206.186 438.812 206.186C437.758 206.186 436.586 205.98 435.297 205.57C434.066 205.16 432.924 204.574 431.869 203.812C430.814 203.109 429.936 202.26 429.232 201.264C428.529 200.268 428.178 199.154 428.178 197.924C428.178 197.455 428.148 196.898 428.09 196.254C428.09 195.551 428.148 194.672 428.266 193.617C428.383 192.504 428.617 191.186 428.969 189.662C429.32 188.08 429.848 186.146 430.551 183.861C428.617 185.912 426.332 188.051 423.695 190.277C421.117 192.504 418.393 194.613 415.521 196.605C412.65 198.598 409.75 200.385 406.82 201.967C403.949 203.607 401.283 204.838 398.822 205.658C398.529 205.775 398.295 205.834 398.119 205.834C397.943 205.834 397.768 205.834 397.592 205.834C397.006 205.834 396.244 205.541 395.307 204.955C394.311 204.369 393.344 203.578 392.406 202.582C391.469 201.645 390.678 200.561 390.033 199.33C389.33 198.1 388.979 196.869 388.979 195.639C388.979 195.287 389.154 194.115 389.506 192.123C389.857 190.131 390.707 187.611 392.055 184.564C393.344 181.459 395.277 178.002 397.855 174.193C400.434 170.326 403.949 166.371 408.402 162.328C410.688 160.277 413.148 158.344 415.785 156.527C418.012 155.004 420.561 153.451 423.432 151.869C426.303 150.287 429.32 149.027 432.484 148.09C432.602 148.09 432.689 148.061 432.748 148.002C432.865 147.943 433.012 147.973 433.188 148.09C433.891 148.324 434.711 148.705 435.648 149.232C436.645 149.701 437.611 150.229 438.549 150.814C439.545 151.342 440.395 151.898 441.098 152.484C441.859 153.012 442.357 153.451 442.592 153.803C442.65 153.92 442.65 154.008 442.592 154.066L442.416 154.242C439.779 155.648 437.289 157.23 434.945 158.988C432.602 160.688 430.521 162.299 428.705 163.822C426.596 165.639 424.633 167.426 422.816 169.184C418.539 173.402 415.58 177.064 413.939 180.17C412.299 183.217 411.479 185.414 411.479 186.762C411.479 187.758 411.889 188.256 412.709 188.256C413.529 188.256 414.555 187.934 415.785 187.289C417.074 186.586 418.51 185.678 420.092 184.564C421.674 183.393 423.402 182.045 425.277 180.521C427.211 178.939 429.203 177.299 431.254 175.6C433.07 174.135 434.828 172.553 436.527 170.854C437.992 169.447 439.516 167.836 441.098 166.02C442.68 164.203 444.027 162.357 445.141 160.482C445.141 160.424 445.17 160.365 445.229 160.307C445.287 160.248 445.375 160.248 445.492 160.307C446.137 160.775 446.869 161.566 447.689 162.68C448.51 163.734 449.271 164.906 449.975 166.195C450.678 167.484 451.264 168.744 451.732 169.975C452.26 171.146 452.523 172.055 452.523 172.699C451.176 175.453 450.121 177.973 449.359 180.258C448.656 182.484 448.1 184.447 447.689 186.146C447.338 187.846 447.104 189.311 446.986 190.541C446.928 191.713 446.898 192.621 446.898 193.266ZM480.385 205.834C479.389 205.834 478.07 205.365 476.43 204.428C474.848 203.549 473.295 202.436 471.771 201.088C470.248 199.799 468.93 198.451 467.816 197.045C466.703 195.639 466.146 194.438 466.146 193.441C466.146 191.684 466.645 188.9 467.641 185.092C468.578 181.283 469.838 176.947 471.42 172.084C473.002 167.162 474.789 161.918 476.781 156.352C478.832 150.785 480.883 145.336 482.934 140.004H470.541H470.453C470.395 140.004 470.365 139.945 470.365 139.828C470.365 139.477 470.512 138.979 470.805 138.334C471.039 137.631 471.361 136.928 471.771 136.225C472.123 135.463 472.562 134.789 473.09 134.203C473.559 133.559 474.027 133.148 474.496 132.973L485.922 132.445C487.562 128.461 489.115 124.799 490.58 121.459C492.104 118.061 493.451 115.16 494.623 112.758C494.916 112.113 495.209 111.439 495.502 110.736C495.854 109.975 496.322 109.242 496.908 108.539C497.553 107.777 498.373 107.016 499.369 106.254C500.424 105.434 501.83 104.613 503.588 103.793C504.877 103.148 506.43 102.445 508.246 101.684C510.121 100.922 511.938 100.219 513.695 99.5742C515.512 98.9297 517.152 98.4023 518.617 97.9922C520.082 97.5234 521.137 97.2891 521.781 97.2891C522.367 97.2891 522.66 97.4062 522.66 97.6406V97.8164C522.66 97.875 522.602 98.0215 522.484 98.2559C522.133 98.8418 521.488 100.131 520.551 102.123C519.613 104.057 518.441 106.518 517.035 109.506C515.688 112.436 514.164 115.805 512.465 119.613C510.824 123.363 509.125 127.348 507.367 131.566L528.461 130.775C529.047 130.775 529.223 131.127 528.988 131.83C528.754 132.533 528.314 133.354 527.67 134.291C527.025 135.229 526.264 136.195 525.385 137.191C524.564 138.188 523.861 138.949 523.275 139.477C523.158 139.594 522.924 139.711 522.572 139.828C522.221 139.945 521.781 140.004 521.254 140.004H503.852C501.742 145.102 499.721 150.258 497.787 155.473C495.854 160.688 494.125 165.639 492.602 170.326C491.078 175.014 489.848 179.32 488.91 183.246C488.031 187.172 487.592 190.395 487.592 192.914C487.592 193.266 487.768 193.441 488.119 193.441C488.764 193.441 489.73 193.09 491.02 192.387C492.309 191.625 493.744 190.658 495.326 189.486C496.967 188.314 498.695 187.025 500.512 185.619C502.328 184.213 504.057 182.836 505.697 181.488C507.338 180.082 508.803 178.822 510.092 177.709C511.439 176.537 512.465 175.658 513.168 175.072C513.695 175.6 514.311 176.273 515.014 177.094C515.775 177.914 516.479 178.676 517.123 179.379C515.834 180.668 514.223 182.25 512.289 184.125C510.355 185.941 508.246 187.816 505.961 189.75C503.734 191.684 501.391 193.617 498.93 195.551C496.527 197.484 494.154 199.213 491.811 200.736C489.525 202.26 487.387 203.49 485.395 204.428C483.402 205.365 481.732 205.834 480.385 205.834ZM518.793 205.834C517.914 205.834 516.801 205.512 515.453 204.867C514.105 204.281 512.816 203.52 511.586 202.582C510.355 201.703 509.301 200.707 508.422 199.594C507.543 198.48 507.104 197.396 507.104 196.342C507.689 193.764 508.48 190.805 509.477 187.465C510.473 184.125 511.557 180.727 512.729 177.27C513.842 173.812 515.043 170.443 516.332 167.162C517.562 163.822 518.676 160.863 519.672 158.285C520.727 155.707 521.635 153.627 522.396 152.045C523.158 150.463 523.656 149.672 523.891 149.672C524.242 149.672 525.121 150.053 526.527 150.814C527.934 151.576 529.398 152.514 530.922 153.627C532.504 154.682 533.91 155.824 535.141 157.055C536.371 158.227 536.986 159.252 536.986 160.131C536.986 160.307 536.957 160.541 536.898 160.834C536.84 161.068 536.752 161.391 536.635 161.801C536.166 163.266 535.551 164.994 534.789 166.986C534.086 168.979 533.324 171.059 532.504 173.227C531.684 175.336 530.863 177.475 530.043 179.643C529.223 181.752 528.49 183.744 527.846 185.619C527.201 187.494 526.674 189.135 526.264 190.541C525.854 191.947 525.648 192.973 525.648 193.617C525.648 193.969 525.824 194.145 526.176 194.145C526.82 194.145 527.787 193.764 529.076 193.002C530.365 192.24 531.83 191.244 533.471 190.014C535.17 188.783 536.928 187.436 538.744 185.971C540.561 184.506 542.289 183.07 543.93 181.664C545.629 180.199 547.152 178.881 548.5 177.709C549.848 176.537 550.873 175.658 551.576 175.072C552.104 175.6 552.719 176.273 553.422 177.094C554.184 177.914 554.887 178.676 555.531 179.379C554.242 180.668 552.631 182.25 550.697 184.125C548.764 185.941 546.654 187.816 544.369 189.75C542.143 191.684 539.799 193.617 537.338 195.551C534.936 197.484 532.592 199.213 530.307 200.736C528.021 202.26 525.883 203.49 523.891 204.428C521.898 205.365 520.199 205.834 518.793 205.834ZM553.598 122.865C553.539 123.1 553.305 123.686 552.895 124.623C552.543 125.502 552.104 126.557 551.576 127.787C551.049 128.959 550.434 130.219 549.73 131.566C549.086 132.855 548.441 134.057 547.797 135.17C547.152 136.283 546.537 137.221 545.951 137.982C545.365 138.686 544.896 139.037 544.545 139.037C543.49 138.979 542.201 138.656 540.678 138.07C539.213 137.484 537.777 136.84 536.371 136.137C535.023 135.375 533.852 134.643 532.855 133.939C531.918 133.236 531.449 132.738 531.449 132.445C531.449 131.215 531.801 129.633 532.504 127.699C533.207 125.707 534.027 123.803 534.965 121.986C535.902 120.111 536.84 118.5 537.777 117.152C538.773 115.805 539.535 115.131 540.062 115.131C541.117 115.131 542.406 115.482 543.93 116.186C545.453 116.83 546.918 117.592 548.324 118.471C549.789 119.35 551.02 120.229 552.016 121.107C553.07 121.928 553.598 122.514 553.598 122.865ZM561.332 192.035C561.332 193.793 561.977 194.672 563.266 194.672C564.613 194.672 566.4 193.617 568.627 191.508C570.854 189.34 573.168 186.615 575.57 183.334C575.453 182.689 575.365 182.133 575.307 181.664C575.307 181.137 575.307 180.668 575.307 180.258C575.307 179.086 575.424 177.709 575.658 176.127C575.951 174.486 576.625 172.641 577.68 170.59C578.383 169.008 579.232 167.455 580.229 165.932C581.049 164.584 582.045 163.148 583.217 161.625C584.389 160.043 585.678 158.578 587.084 157.23L587.611 156.703C588.197 157.406 588.959 158.373 589.896 159.604C590.893 160.775 591.859 162.006 592.797 163.295C593.793 164.525 594.643 165.668 595.346 166.723C596.107 167.777 596.576 168.51 596.752 168.92C596.752 171.439 596.283 173.959 595.346 176.479C594.467 178.998 593.266 181.488 591.742 183.949C595.258 183.715 598.51 182.836 601.498 181.312C604.545 179.73 607.709 177.182 610.99 173.666C611.518 174.193 612.191 174.926 613.012 175.863C613.891 176.742 614.594 177.504 615.121 178.148C612.66 180.727 610.229 182.865 607.826 184.564C605.482 186.264 603.109 187.611 600.707 188.607C598.363 189.604 595.961 190.336 593.5 190.805C591.039 191.215 588.52 191.42 585.941 191.42C583.949 193.529 581.811 195.463 579.525 197.221C577.24 198.979 574.896 200.502 572.494 201.791C570.15 203.08 567.807 204.076 565.463 204.779C563.119 205.482 560.893 205.834 558.783 205.834C557.025 205.834 555.209 205.307 553.334 204.252C551.459 203.197 549.76 201.908 548.236 200.385C546.713 198.803 545.453 197.133 544.457 195.375C543.461 193.617 542.963 192.064 542.963 190.717C542.963 186.264 543.578 181.84 544.809 177.445C545.98 173.051 547.855 168.949 550.434 165.141C552.953 161.273 556.176 157.875 560.102 154.945C564.086 152.016 568.803 149.789 574.252 148.266C574.428 148.148 574.721 148.061 575.131 148.002C575.6 147.943 575.98 147.914 576.273 147.914C577.094 147.914 577.943 148.236 578.822 148.881C579.76 149.467 580.609 150.141 581.371 150.902C582.191 151.664 582.865 152.426 583.393 153.188C583.92 153.891 584.184 154.359 584.184 154.594C584.066 154.887 583.627 155.268 582.865 155.736C582.104 156.146 581.078 156.879 579.789 157.934C578.5 158.988 576.977 160.512 575.219 162.504C573.461 164.438 571.527 167.016 569.418 170.238C566.254 174.984 564.115 179.291 563.002 183.158C561.889 186.967 561.332 189.926 561.332 192.035ZM634.633 158.549C633.93 160.424 633.227 162.328 632.523 164.262C631.82 166.195 631.117 168.188 630.414 170.238C634.105 166.02 637.27 162.592 639.906 159.955C642.602 157.26 644.857 155.15 646.674 153.627C648.549 152.104 650.043 151.078 651.156 150.551C652.328 149.965 653.236 149.672 653.881 149.672C654.643 149.672 655.785 150.053 657.309 150.814C658.832 151.576 660.355 152.514 661.879 153.627C663.461 154.74 664.809 155.883 665.922 157.055C667.094 158.227 667.68 159.252 667.68 160.131C667.68 160.307 667.65 160.541 667.592 160.834C667.533 161.068 667.445 161.391 667.328 161.801C666.859 163.266 666.244 164.994 665.482 166.986C664.779 168.979 664.018 171.059 663.197 173.227C662.377 175.336 661.557 177.475 660.736 179.643C659.916 181.752 659.184 183.744 658.539 185.619C657.895 187.494 657.367 189.135 656.957 190.541C656.547 191.947 656.342 192.973 656.342 193.617C656.342 193.969 656.518 194.145 656.869 194.145C657.514 194.145 658.48 193.764 659.77 193.002C661.059 192.24 662.523 191.244 664.164 190.014C665.863 188.783 667.621 187.436 669.438 185.971C671.254 184.506 672.982 183.07 674.623 181.664C676.322 180.199 677.846 178.881 679.193 177.709C680.541 176.537 681.566 175.658 682.27 175.072C682.855 175.6 683.5 176.273 684.203 177.094C684.906 177.914 685.58 178.676 686.225 179.379C684.936 180.668 683.324 182.25 681.391 184.125C679.457 185.941 677.348 187.816 675.062 189.75C672.836 191.684 670.492 193.617 668.031 195.551C665.629 197.484 663.285 199.213 661 200.736C658.715 202.26 656.576 203.49 654.584 204.428C652.592 205.365 650.922 205.834 649.574 205.834C648.695 205.834 647.582 205.512 646.234 204.867C644.887 204.281 643.568 203.52 642.279 202.582C641.049 201.703 639.994 200.707 639.115 199.594C638.236 198.48 637.797 197.396 637.797 196.342C638.324 193.939 639.027 191.215 639.906 188.168C640.844 185.121 641.84 182.016 642.895 178.852C643.949 175.629 645.033 172.465 646.146 169.359C647.318 166.195 648.432 163.295 649.486 160.658L649.311 160.834C648.197 162.182 646.586 163.969 644.477 166.195C642.426 168.363 640.082 171.176 637.445 174.633C634.809 178.031 632.025 182.162 629.096 187.025C626.166 191.83 623.295 197.543 620.482 204.164C620.131 204.984 619.809 205.629 619.516 206.098C619.223 206.566 618.666 206.801 617.846 206.801C616.85 206.801 615.707 206.508 614.418 205.922C613.188 205.395 611.928 204.662 610.639 203.725C609.291 202.846 607.973 201.85 606.684 200.736C605.336 199.623 604.135 198.51 603.08 197.396C603.08 197.045 603.256 196.049 603.607 194.408C603.9 192.768 604.34 190.717 604.926 188.256C605.512 185.736 606.244 182.895 607.123 179.73C608.002 176.508 608.998 173.139 610.111 169.623C611.225 166.107 612.455 162.533 613.803 158.9C615.092 155.209 616.498 151.664 618.021 148.266C620.482 149.438 623.207 150.873 626.195 152.572C629.242 154.271 632.055 156.264 634.633 158.549ZM680.512 176.742C681.859 175.453 683.412 173.988 685.17 172.348C686.869 170.707 688.568 168.92 690.268 166.986C692.025 165.053 693.637 162.973 695.102 160.746C696.625 158.52 697.826 156.117 698.705 153.539C698.939 152.191 699.291 150.785 699.76 149.32C700.287 147.797 700.844 146.42 701.43 145.189C702.074 143.959 702.689 142.934 703.275 142.113C703.861 141.293 704.389 140.883 704.857 140.883C705.561 141.293 706.615 142.084 708.021 143.256C709.428 144.369 710.834 145.57 712.24 146.859C713.646 148.148 714.877 149.35 715.932 150.463C717.045 151.518 717.602 152.162 717.602 152.396C716.898 155.092 716.547 157.523 716.547 159.691C716.605 161.859 716.781 163.998 717.074 166.107C717.426 168.217 717.777 170.473 718.129 172.875C718.539 175.219 718.744 177.943 718.744 181.049C718.744 182.924 718.422 185.092 717.777 187.553C717.191 189.955 716.137 192.123 714.613 194.057C717.602 192.299 720.561 190.336 723.49 188.168C726.42 185.941 729.027 183.861 731.312 181.928C734.008 179.643 736.586 177.357 739.047 175.072L743.002 179.379C741.068 181.195 738.959 183.129 736.674 185.18C734.447 187.23 732.104 189.252 729.643 191.244C727.24 193.236 724.779 195.141 722.26 196.957C719.74 198.773 717.25 200.385 714.789 201.791C712.328 203.197 709.955 204.311 707.67 205.131C705.385 205.951 703.246 206.361 701.254 206.361C699.555 206.361 697.68 205.951 695.629 205.131C693.578 204.311 691.645 203.314 689.828 202.143C688.012 200.971 686.43 199.74 685.082 198.451C683.734 197.162 682.943 196.078 682.709 195.199C682.709 195.082 682.826 194.848 683.061 194.496C683.295 194.086 683.588 193.676 683.939 193.266C684.232 192.855 684.555 192.504 684.906 192.211C685.199 191.859 685.434 191.684 685.609 191.684C685.961 191.684 686.664 191.947 687.719 192.475C688.773 193.002 690.531 193.266 692.992 193.266C694.34 193.266 695.482 192.914 696.42 192.211C697.416 191.508 698.236 190.57 698.881 189.398C699.525 188.227 699.994 186.879 700.287 185.355C700.58 183.832 700.727 182.221 700.727 180.521C700.727 178.061 700.609 175.688 700.375 173.402C700.141 171.059 699.877 168.803 699.584 166.635C698.588 167.807 697.445 169.037 696.156 170.326C694.867 171.615 693.549 172.904 692.201 174.193C690.912 175.424 689.594 176.654 688.246 177.885C686.957 179.057 685.785 180.111 684.73 181.049L680.512 176.742ZM802.152 155.121C801.918 156.176 801.566 157.582 801.098 159.34C800.688 161.098 800.219 162.914 799.691 164.789C799.164 166.605 798.607 168.305 798.021 169.887C797.494 171.41 797.055 172.436 796.703 172.963C796 172.963 794.418 172.992 791.957 173.051C789.555 173.051 786.713 173.08 783.432 173.139C780.15 173.139 776.664 173.168 772.973 173.227C769.281 173.285 765.854 173.314 762.689 173.314C759.525 173.314 756.83 173.285 754.604 173.227C752.436 173.168 751.176 173.08 750.824 172.963C751 172.26 751.234 171.234 751.527 169.887C751.879 168.539 752.26 167.133 752.67 165.668C753.08 164.203 753.49 162.826 753.9 161.537C754.311 160.248 754.662 159.369 754.955 158.9C755.424 158.725 756.83 158.52 759.174 158.285C761.576 157.992 764.447 157.699 767.787 157.406C771.186 157.113 774.789 156.85 778.598 156.615C782.465 156.322 786.068 156.088 789.408 155.912C792.748 155.678 795.59 155.502 797.934 155.385C800.336 155.209 801.742 155.121 802.152 155.121ZM938.207 89.3789C935.336 89.2617 932.436 89.1152 929.506 88.9395C926.576 88.7637 923.441 88.5879 920.102 88.4121C916.762 88.2363 913.07 88.0898 909.027 87.9727C905.043 87.8555 900.531 87.7969 895.492 87.7969C889.047 87.7969 882.807 87.9727 876.771 88.3242C870.736 88.6172 864.76 89.2031 858.842 90.082C852.924 90.9609 847.006 92.1914 841.088 93.7734C835.17 95.3555 829.105 97.4355 822.895 100.014C825.414 107.045 827.436 113.93 828.959 120.668C830.482 127.406 831.654 133.822 832.475 139.916C833.354 146.01 833.939 151.723 834.232 157.055C834.525 162.387 834.672 167.191 834.672 171.469C834.672 175.512 834.584 179.086 834.408 182.191C834.232 185.238 834.027 187.787 833.793 189.838C833.559 192.299 833.266 194.408 832.914 196.166C835.727 189.486 838.451 182.426 841.088 174.984C843.783 167.484 846.332 160.072 848.734 152.748C851.137 145.365 853.363 138.246 855.414 131.391C857.465 124.535 859.252 118.383 860.775 112.934C862.357 107.484 863.646 102.943 864.643 99.3105C865.639 95.6191 866.283 93.2754 866.576 92.2793C867.865 93.334 869.418 94.6816 871.234 96.3223C873.109 97.9629 874.984 99.6621 876.859 101.42C878.734 103.178 880.463 104.877 882.045 106.518C883.686 108.1 884.945 109.418 885.824 110.473C884.359 115.922 882.426 121.928 880.023 128.49C877.621 135.053 874.955 141.82 872.025 148.793C869.154 155.766 866.137 162.768 862.973 169.799C859.809 176.771 856.732 183.393 853.744 189.662C850.756 195.932 847.973 201.645 845.395 206.801C842.875 211.957 840.795 216.205 839.154 219.545C838.275 218.666 837.191 217.465 835.902 215.941C834.613 214.418 833.295 212.865 831.947 211.283C830.6 209.76 829.34 208.324 828.168 206.977C827.055 205.629 826.234 204.662 825.707 204.076C825.824 203.373 826.029 202.172 826.322 200.473C826.674 198.715 826.996 196.547 827.289 193.969C827.641 191.332 827.934 188.285 828.168 184.828C828.402 181.371 828.52 177.533 828.52 173.314C828.52 168.51 828.314 163.354 827.904 157.846C827.494 152.279 826.674 146.508 825.443 140.531C824.271 134.555 822.572 128.402 820.346 122.074C818.119 115.746 815.219 109.359 811.645 102.914C811.586 102.914 811.557 102.885 811.557 102.826C811.498 102.768 811.469 102.621 811.469 102.387C811.469 101.801 811.674 101.01 812.084 100.014C812.494 98.959 813.021 97.8457 813.666 96.6738C814.369 95.4434 815.102 94.2422 815.863 93.0703C816.684 91.8398 817.445 90.7852 818.148 89.9062C818.441 89.5547 819.848 88.7344 822.367 87.4453C824.887 86.0977 828.344 84.5156 832.738 82.6992C837.191 80.8828 842.465 78.9492 848.559 76.8984C854.711 74.8477 861.508 72.9727 868.949 71.2734C876.391 69.5156 884.389 68.0801 892.943 66.9668C901.557 65.8535 910.521 65.2969 919.838 65.2969C920.248 65.7656 920.893 66.5566 921.771 67.6699C922.709 68.7246 923.764 69.9844 924.936 71.4492C926.107 72.8555 927.338 74.4082 928.627 76.1074C929.975 77.748 931.264 79.3887 932.494 81.0293C933.725 82.6113 934.838 84.1348 935.834 85.5996C936.83 87.0645 937.621 88.3242 938.207 89.3789ZM900.59 192.035C900.59 193.793 901.234 194.672 902.523 194.672C903.871 194.672 905.658 193.617 907.885 191.508C910.111 189.34 912.426 186.615 914.828 183.334C914.711 182.689 914.623 182.133 914.564 181.664C914.564 181.137 914.564 180.668 914.564 180.258C914.564 179.086 914.682 177.709 914.916 176.127C915.209 174.486 915.883 172.641 916.938 170.59C917.641 169.008 918.49 167.455 919.486 165.932C920.307 164.584 921.303 163.148 922.475 161.625C923.646 160.043 924.936 158.578 926.342 157.23L926.869 156.703C927.455 157.406 928.217 158.373 929.154 159.604C930.15 160.775 931.117 162.006 932.055 163.295C933.051 164.525 933.9 165.668 934.604 166.723C935.365 167.777 935.834 168.51 936.01 168.92C936.01 171.439 935.541 173.959 934.604 176.479C933.725 178.998 932.523 181.488 931 183.949C934.516 183.715 937.768 182.836 940.756 181.312C943.803 179.73 946.967 177.182 950.248 173.666C950.775 174.193 951.449 174.926 952.27 175.863C953.148 176.742 953.852 177.504 954.379 178.148C951.918 180.727 949.486 182.865 947.084 184.564C944.74 186.264 942.367 187.611 939.965 188.607C937.621 189.604 935.219 190.336 932.758 190.805C930.297 191.215 927.777 191.42 925.199 191.42C923.207 193.529 921.068 195.463 918.783 197.221C916.498 198.979 914.154 200.502 911.752 201.791C909.408 203.08 907.064 204.076 904.721 204.779C902.377 205.482 900.15 205.834 898.041 205.834C896.283 205.834 894.467 205.307 892.592 204.252C890.717 203.197 889.018 201.908 887.494 200.385C885.971 198.803 884.711 197.133 883.715 195.375C882.719 193.617 882.221 192.064 882.221 190.717C882.221 186.264 882.836 181.84 884.066 177.445C885.238 173.051 887.113 168.949 889.691 165.141C892.211 161.273 895.434 157.875 899.359 154.945C903.344 152.016 908.061 149.789 913.51 148.266C913.686 148.148 913.979 148.061 914.389 148.002C914.857 147.943 915.238 147.914 915.531 147.914C916.352 147.914 917.201 148.236 918.08 148.881C919.018 149.467 919.867 150.141 920.629 150.902C921.449 151.664 922.123 152.426 922.65 153.188C923.178 153.891 923.441 154.359 923.441 154.594C923.324 154.887 922.885 155.268 922.123 155.736C921.361 156.146 920.336 156.879 919.047 157.934C917.758 158.988 916.234 160.512 914.477 162.504C912.719 164.438 910.785 167.016 908.676 170.238C905.512 174.984 903.373 179.291 902.26 183.158C901.146 186.967 900.59 189.926 900.59 192.035ZM1045.17 153.803C1044.82 154.213 1044.03 155.736 1042.8 158.373C1041.57 161.01 1040.07 164.408 1038.31 168.568C1036.62 172.729 1034.77 177.533 1032.78 182.982C1030.79 188.432 1028.82 194.203 1026.89 200.297C1024.96 206.332 1023.17 212.543 1021.53 218.93C1019.89 225.316 1018.57 231.527 1017.57 237.562C1015.99 238.031 1014.17 238.5 1012.12 238.969C1010.13 239.438 1008.14 239.877 1006.15 240.287C1004.15 240.697 1002.34 241.02 1000.7 241.254C999.057 241.547 997.855 241.693 997.094 241.693C998.148 237.182 999.174 232.875 1000.17 228.773C1001.22 224.672 1002.37 220.658 1003.6 216.732C1004.83 212.865 1006.18 209.027 1007.64 205.219C1009.16 201.41 1010.92 197.484 1012.91 193.441C1010.69 196.312 1008.31 199.096 1005.79 201.791C1003.33 204.486 1000.79 206.889 998.148 208.998C995.57 211.107 992.934 212.777 990.238 214.008C987.602 215.297 984.965 215.941 982.328 215.941C980.512 215.941 978.461 215.443 976.176 214.447C973.949 213.451 971.693 212.074 969.408 210.316C967.123 208.617 964.896 206.566 962.729 204.164C960.561 201.82 958.627 199.271 956.928 196.518C955.287 193.764 953.969 190.863 952.973 187.816C951.918 184.77 951.391 181.723 951.391 178.676C951.391 173.637 952.094 168.129 953.5 162.152C954.906 156.176 956.869 150.023 959.389 143.695C961.908 137.367 964.955 131.01 968.529 124.623C972.104 118.178 976.029 111.996 980.307 106.078C984.584 100.16 989.154 94.6523 994.018 89.5547C998.939 84.3984 1004.04 79.916 1009.31 76.1074C1014.58 72.2988 1019.95 69.3105 1025.39 67.1426C1030.84 64.916 1036.29 63.8027 1041.74 63.8027C1043.79 63.8027 1045.79 64.2715 1047.72 65.209C1049.71 66.0879 1051.56 67.2305 1053.26 68.6367C1055.01 69.9844 1056.6 71.4785 1058 73.1191C1059.47 74.7598 1060.7 76.2832 1061.69 77.6895C1062.87 79.3887 1063.92 81.3516 1064.86 83.5781C1065.85 85.8047 1066.35 88.0312 1066.35 90.2578C1066.35 94.0078 1065.77 97.9629 1064.59 102.123C1063.48 106.283 1061.93 110.414 1059.94 114.516C1057.94 118.617 1055.6 122.602 1052.9 126.469C1050.21 130.277 1047.31 133.705 1044.2 136.752L1028.73 122.338C1030.49 120.521 1032.6 118.178 1035.06 115.307C1037.52 112.436 1039.87 109.213 1042.09 105.639C1044.32 102.006 1046.22 98.168 1047.81 94.125C1049.39 90.0234 1050.18 85.8633 1050.18 81.6445C1050.18 80.9414 1050.15 80.1504 1050.09 79.2715C1050.03 78.3926 1049.83 77.5723 1049.48 76.8105C1049.18 76.0488 1048.69 75.4043 1047.98 74.877C1047.34 74.3496 1046.4 74.0859 1045.17 74.0859C1041.89 74.0859 1038.29 75.3164 1034.36 77.7773C1030.49 80.2383 1026.48 83.5781 1022.32 87.7969C1018.22 91.957 1014.06 96.8496 1009.84 102.475C1005.68 108.041 1001.66 113.959 997.797 120.229C993.93 126.498 990.297 132.943 986.898 139.564C983.559 146.127 980.629 152.514 978.109 158.725C975.648 164.936 973.686 170.766 972.221 176.215C970.814 181.664 970.111 186.381 970.111 190.365C970.111 194.057 970.551 196.693 971.43 198.275C972.367 199.857 973.656 200.648 975.297 200.648C977.289 200.648 979.545 200.004 982.064 198.715C984.584 197.367 987.191 195.639 989.887 193.529C992.641 191.361 995.365 188.959 998.061 186.322C1000.81 183.627 1003.36 180.932 1005.71 178.236C1008.11 175.482 1010.25 172.846 1012.12 170.326C1014.06 167.807 1015.58 165.668 1016.69 163.91C1017.75 162.211 1018.66 160.453 1019.42 158.637C1020.18 156.82 1021.06 154.975 1022.05 153.1C1024.28 153.1 1026.33 153.129 1028.21 153.188C1030.14 153.246 1032.02 153.334 1033.83 153.451C1035.71 153.51 1037.55 153.568 1039.37 153.627C1041.19 153.686 1043.12 153.744 1045.17 153.803ZM1065.65 192.035C1065.65 193.793 1066.29 194.672 1067.58 194.672C1068.93 194.672 1070.72 193.617 1072.94 191.508C1075.17 189.34 1077.48 186.615 1079.89 183.334C1079.77 182.689 1079.68 182.133 1079.62 181.664C1079.62 181.137 1079.62 180.668 1079.62 180.258C1079.62 179.086 1079.74 177.709 1079.97 176.127C1080.27 174.486 1080.94 172.641 1082 170.59C1082.7 169.008 1083.55 167.455 1084.54 165.932C1085.37 164.584 1086.36 163.148 1087.53 161.625C1088.71 160.043 1089.99 158.578 1091.4 157.23L1091.93 156.703C1092.51 157.406 1093.28 158.373 1094.21 159.604C1095.21 160.775 1096.18 162.006 1097.11 163.295C1098.11 164.525 1098.96 165.668 1099.66 166.723C1100.42 167.777 1100.89 168.51 1101.07 168.92C1101.07 171.439 1100.6 173.959 1099.66 176.479C1098.78 178.998 1097.58 181.488 1096.06 183.949C1099.57 183.715 1102.83 182.836 1105.81 181.312C1108.86 179.73 1112.03 177.182 1115.31 173.666C1115.83 174.193 1116.51 174.926 1117.33 175.863C1118.21 176.742 1118.91 177.504 1119.44 178.148C1116.98 180.727 1114.54 182.865 1112.14 184.564C1109.8 186.264 1107.43 187.611 1105.02 188.607C1102.68 189.604 1100.28 190.336 1097.82 190.805C1095.36 191.215 1092.84 191.42 1090.26 191.42C1088.27 193.529 1086.13 195.463 1083.84 197.221C1081.56 198.979 1079.21 200.502 1076.81 201.791C1074.47 203.08 1072.12 204.076 1069.78 204.779C1067.44 205.482 1065.21 205.834 1063.1 205.834C1061.34 205.834 1059.53 205.307 1057.65 204.252C1055.78 203.197 1054.08 201.908 1052.55 200.385C1051.03 198.803 1049.77 197.133 1048.77 195.375C1047.78 193.617 1047.28 192.064 1047.28 190.717C1047.28 186.264 1047.89 181.84 1049.12 177.445C1050.3 173.051 1052.17 168.949 1054.75 165.141C1057.27 161.273 1060.49 157.875 1064.42 154.945C1068.4 152.016 1073.12 149.789 1078.57 148.266C1078.74 148.148 1079.04 148.061 1079.45 148.002C1079.92 147.943 1080.3 147.914 1080.59 147.914C1081.41 147.914 1082.26 148.236 1083.14 148.881C1084.08 149.467 1084.93 150.141 1085.69 150.902C1086.51 151.664 1087.18 152.426 1087.71 153.188C1088.24 153.891 1088.5 154.359 1088.5 154.594C1088.38 154.887 1087.94 155.268 1087.18 155.736C1086.42 156.146 1085.39 156.879 1084.11 157.934C1082.82 158.988 1081.29 160.512 1079.54 162.504C1077.78 164.438 1075.84 167.016 1073.73 170.238C1070.57 174.984 1068.43 179.291 1067.32 183.158C1066.21 186.967 1065.65 189.926 1065.65 192.035Z" fill="black"/>
<path d="M295.562 95.103C293.682 105.129 290.72 114.87 286.675 124.327C282.631 133.726 277.931 142.641 272.576 151.072C267.278 159.446 261.496 167.251 255.23 174.485C249.021 181.72 242.783 188.186 236.517 193.882C230.307 199.522 224.297 204.307 218.487 208.238C212.676 212.168 207.521 215.045 203.021 216.868C202.394 217.153 201.824 217.324 201.312 217.381C200.856 217.495 200.542 217.552 200.372 217.552C199.232 217.552 198.036 217.096 196.783 216.185C195.586 215.273 194.419 214.219 193.279 213.023C192.197 211.827 191.229 210.63 190.374 209.434C189.576 208.238 189.007 207.326 188.665 206.7C188.38 206.244 188.095 205.56 187.811 204.649C187.526 203.794 187.383 202.798 187.383 201.658C187.383 198.696 187.697 194.708 188.323 189.695C188.95 184.625 189.861 178.843 191.058 172.349C192.254 165.855 193.65 158.791 195.245 151.158C196.897 143.524 198.748 135.634 200.799 127.488C202.85 119.342 205.043 111.082 207.378 102.708C209.714 94.277 212.164 86.0739 214.727 78.0986C215.582 79.0101 216.635 80.2064 217.889 81.6875C219.142 83.1686 220.452 84.7637 221.819 86.4727C223.187 88.1247 224.525 89.8052 225.835 91.5142C227.203 93.2231 228.399 94.7612 229.424 96.1284C230.507 97.4956 231.361 98.6349 231.988 99.5464C232.614 100.401 232.928 100.828 232.928 100.828C229.852 109.829 226.975 118.858 224.297 127.916C221.677 136.973 219.199 145.86 216.863 154.576C214.585 163.235 212.448 171.609 210.455 179.698C208.461 187.787 206.609 195.363 204.9 202.427C211.622 198.326 217.917 193.455 223.785 187.815C229.709 182.176 235.149 176.052 240.105 169.444C245.062 162.779 249.476 155.772 253.35 148.423C257.281 141.018 260.585 133.555 263.262 126.036C265.997 118.459 268.076 110.968 269.5 103.562C270.924 96.0999 271.636 88.9507 271.636 82.1147C271.636 80.1779 271.551 78.5259 271.38 77.1587C271.266 75.7345 271.124 74.5382 270.953 73.5698C270.782 72.6014 270.611 71.8608 270.44 71.3481C270.326 70.7785 270.241 70.3512 270.184 70.0664L295.562 95.103ZM326.922 194.48C326.922 194.822 327.093 194.993 327.435 194.993C327.947 194.993 328.802 194.623 329.998 193.882C331.194 193.142 332.562 192.202 334.1 191.062C335.638 189.923 337.261 188.641 338.97 187.217C340.736 185.793 342.417 184.397 344.012 183.03C345.607 181.663 347.031 180.41 348.284 179.271C349.594 178.131 350.591 177.248 351.275 176.622C351.788 177.134 352.414 177.818 353.155 178.672C353.952 179.527 354.664 180.296 355.291 180.979C353.924 182.233 352.272 183.771 350.335 185.594C348.455 187.36 346.404 189.211 344.183 191.148C342.018 193.085 339.768 195.022 337.432 196.958C335.097 198.838 332.818 200.519 330.596 202C328.375 203.481 326.267 204.677 324.273 205.589C322.279 206.557 320.542 207.042 319.061 207.042C318.035 207.042 316.896 206.842 315.643 206.443C314.446 206.045 313.335 205.475 312.31 204.734C311.285 204.051 310.43 203.225 309.747 202.256C309.063 201.288 308.721 200.206 308.721 199.009C308.721 198.554 308.693 198.012 308.636 197.386C308.636 196.702 308.693 195.848 308.807 194.822C308.921 193.74 309.148 192.458 309.49 190.977C309.832 189.439 310.345 187.559 311.028 185.337C309.148 187.331 306.927 189.41 304.363 191.575C301.857 193.74 299.208 195.791 296.417 197.728C293.625 199.664 290.805 201.402 287.957 202.94C285.166 204.535 282.574 205.731 280.181 206.529C279.896 206.643 279.668 206.7 279.498 206.7C279.327 206.7 279.156 206.7 278.985 206.7C278.415 206.7 277.675 206.415 276.763 205.845C275.795 205.276 274.855 204.507 273.943 203.538C273.032 202.627 272.263 201.573 271.636 200.376C270.953 199.18 270.611 197.984 270.611 196.788C270.611 196.446 270.782 195.306 271.124 193.37C271.465 191.433 272.291 188.983 273.602 186.021C274.855 183.002 276.735 179.641 279.241 175.938C281.748 172.178 285.166 168.333 289.495 164.402C291.717 162.409 294.109 160.529 296.673 158.763C298.838 157.282 301.316 155.772 304.107 154.234C306.898 152.696 309.832 151.471 312.908 150.56C313.022 150.56 313.108 150.531 313.165 150.474C313.278 150.417 313.421 150.446 313.592 150.56C314.275 150.787 315.073 151.158 315.984 151.67C316.953 152.126 317.893 152.639 318.804 153.208C319.773 153.721 320.599 154.262 321.282 154.832C322.023 155.345 322.507 155.772 322.735 156.114C322.792 156.228 322.792 156.313 322.735 156.37L322.564 156.541C320 157.908 317.579 159.446 315.301 161.155C313.022 162.807 311 164.374 309.234 165.855C307.183 167.621 305.275 169.358 303.509 171.067C299.35 175.169 296.473 178.729 294.878 181.749C293.283 184.711 292.486 186.847 292.486 188.157C292.486 189.126 292.885 189.61 293.682 189.61C294.48 189.61 295.477 189.297 296.673 188.67C297.926 187.986 299.322 187.103 300.86 186.021C302.398 184.882 304.078 183.571 305.901 182.09C307.781 180.552 309.718 178.957 311.712 177.305C313.478 175.881 315.187 174.343 316.839 172.691C318.263 171.324 319.744 169.757 321.282 167.991C322.82 166.225 324.131 164.431 325.213 162.608C325.213 162.551 325.241 162.494 325.298 162.437C325.355 162.38 325.441 162.38 325.555 162.437C326.181 162.893 326.893 163.662 327.691 164.744C328.488 165.77 329.229 166.909 329.913 168.162C330.596 169.415 331.166 170.64 331.622 171.836C332.134 172.976 332.391 173.859 332.391 174.485C331.08 177.163 330.055 179.612 329.314 181.834C328.631 183.999 328.09 185.907 327.691 187.559C327.349 189.211 327.121 190.635 327.007 191.832C326.95 192.971 326.922 193.854 326.922 194.48ZM358.453 208.323C357.427 208.323 356.259 207.981 354.949 207.298C353.639 206.671 352.3 205.788 350.933 204.649C349.566 203.567 348.256 202.285 347.002 200.804C345.692 199.266 344.61 197.671 343.755 196.019C343.414 195.392 343.186 194.68 343.072 193.882C342.958 193.085 342.901 192.059 342.901 190.806C342.901 187.559 343.414 184.312 344.439 181.065C345.407 177.761 346.775 174.628 348.541 171.666C350.306 168.703 352.443 165.94 354.949 163.377C357.399 160.757 360.076 158.506 362.981 156.626C365.887 154.747 368.991 153.265 372.295 152.183C375.599 151.101 378.96 150.56 382.378 150.56C382.891 150.56 383.575 150.844 384.429 151.414C385.341 151.927 386.309 152.639 387.334 153.55C388.36 154.462 389.385 155.487 390.411 156.626C391.493 157.766 392.461 158.934 393.316 160.13C394.17 161.269 394.854 162.409 395.367 163.548C395.936 164.63 396.221 165.599 396.221 166.453C395.936 167.535 395.053 168.732 393.572 170.042C392.091 171.295 390.325 172.492 388.274 173.631C386.281 174.713 384.173 175.625 381.951 176.365C379.729 177.106 377.793 177.476 376.141 177.476C375.172 177.476 374.688 177.191 374.688 176.622C374.688 175.995 375.115 175.083 375.97 173.887C376.824 172.634 377.764 171.295 378.79 169.871C379.872 168.39 380.84 166.937 381.695 165.513C382.549 164.032 382.977 162.779 382.977 161.753C382.977 161.241 382.834 160.813 382.549 160.472C382.321 160.13 381.98 159.959 381.524 159.959C380.271 159.959 378.96 160.529 377.593 161.668C376.226 162.807 374.859 164.317 373.492 166.197C372.125 168.077 370.814 170.241 369.561 172.691C368.308 175.083 367.197 177.562 366.229 180.125C365.317 182.688 364.576 185.252 364.007 187.815C363.437 190.379 363.152 192.715 363.152 194.822C363.152 196.076 363.523 196.958 364.263 197.471C365.004 197.927 366.143 198.155 367.681 198.155C371.498 198.155 375.172 197.528 378.704 196.275C382.293 194.965 385.711 193.313 388.958 191.319C392.262 189.268 395.395 186.989 398.357 184.483C401.32 181.976 404.111 179.47 406.731 176.963C407.358 177.704 408.127 178.444 409.039 179.185C409.95 179.869 410.634 180.467 411.089 180.979C407.557 184.682 403.798 188.214 399.81 191.575C395.879 194.879 391.721 197.785 387.334 200.291C382.948 202.741 378.334 204.677 373.492 206.102C368.707 207.583 363.694 208.323 358.453 208.323ZM455.096 194.48C455.096 194.822 455.267 194.993 455.608 194.993C456.121 194.993 456.976 194.623 458.172 193.882C459.368 193.142 460.735 192.202 462.273 191.062C463.812 189.923 465.435 188.641 467.144 187.217C468.91 185.793 470.59 184.397 472.186 183.03C473.781 181.663 475.205 180.41 476.458 179.271C477.768 178.131 478.765 177.248 479.449 176.622C479.961 177.134 480.588 177.818 481.329 178.672C482.126 179.527 482.838 180.296 483.465 180.979C482.098 182.233 480.446 183.771 478.509 185.594C476.629 187.36 474.578 189.211 472.356 191.148C470.192 193.085 467.942 195.022 465.606 196.958C463.27 198.838 460.992 200.519 458.77 202C456.548 203.481 454.441 204.677 452.447 205.589C450.453 206.557 448.715 207.042 447.234 207.042C446.209 207.042 445.07 206.842 443.816 206.443C442.62 206.045 441.509 205.475 440.484 204.734C439.458 204.051 438.604 203.225 437.92 202.256C437.237 201.288 436.895 200.206 436.895 199.009C436.895 198.554 436.867 198.012 436.81 197.386C436.81 196.702 436.867 195.848 436.98 194.822C437.094 193.74 437.322 192.458 437.664 190.977C438.006 189.439 438.519 187.559 439.202 185.337C437.322 187.331 435.101 189.41 432.537 191.575C430.031 193.74 427.382 195.791 424.59 197.728C421.799 199.664 418.979 201.402 416.131 202.94C413.34 204.535 410.748 205.731 408.355 206.529C408.07 206.643 407.842 206.7 407.671 206.7C407.5 206.7 407.33 206.7 407.159 206.7C406.589 206.7 405.848 206.415 404.937 205.845C403.969 205.276 403.029 204.507 402.117 203.538C401.206 202.627 400.437 201.573 399.81 200.376C399.126 199.18 398.785 197.984 398.785 196.788C398.785 196.446 398.956 195.306 399.297 193.37C399.639 191.433 400.465 188.983 401.775 186.021C403.029 183.002 404.909 179.641 407.415 175.938C409.922 172.178 413.34 168.333 417.669 164.402C419.891 162.409 422.283 160.529 424.847 158.763C427.011 157.282 429.489 155.772 432.281 154.234C435.072 152.696 438.006 151.471 441.082 150.56C441.196 150.56 441.281 150.531 441.338 150.474C441.452 150.417 441.595 150.446 441.766 150.56C442.449 150.787 443.247 151.158 444.158 151.67C445.127 152.126 446.067 152.639 446.978 153.208C447.946 153.721 448.772 154.262 449.456 154.832C450.197 155.345 450.681 155.772 450.909 156.114C450.966 156.228 450.966 156.313 450.909 156.37L450.738 156.541C448.174 157.908 445.753 159.446 443.475 161.155C441.196 162.807 439.174 164.374 437.408 165.855C435.357 167.621 433.449 169.358 431.683 171.067C427.524 175.169 424.647 178.729 423.052 181.749C421.457 184.711 420.66 186.847 420.66 188.157C420.66 189.126 421.058 189.61 421.856 189.61C422.653 189.61 423.65 189.297 424.847 188.67C426.1 187.986 427.496 187.103 429.034 186.021C430.572 184.882 432.252 183.571 434.075 182.09C435.955 180.552 437.892 178.957 439.886 177.305C441.652 175.881 443.361 174.343 445.013 172.691C446.437 171.324 447.918 169.757 449.456 167.991C450.994 166.225 452.304 164.431 453.387 162.608C453.387 162.551 453.415 162.494 453.472 162.437C453.529 162.38 453.615 162.38 453.729 162.437C454.355 162.893 455.067 163.662 455.865 164.744C456.662 165.77 457.403 166.909 458.086 168.162C458.77 169.415 459.34 170.64 459.795 171.836C460.308 172.976 460.564 173.859 460.564 174.485C459.254 177.163 458.229 179.612 457.488 181.834C456.805 183.999 456.264 185.907 455.865 187.559C455.523 189.211 455.295 190.635 455.181 191.832C455.124 192.971 455.096 193.854 455.096 194.48ZM487.652 206.7C486.683 206.7 485.402 206.244 483.807 205.333C482.269 204.478 480.759 203.396 479.278 202.085C477.797 200.832 476.515 199.522 475.433 198.155C474.35 196.788 473.809 195.62 473.809 194.651C473.809 192.942 474.293 190.236 475.262 186.534C476.173 182.831 477.398 178.615 478.936 173.887C480.474 169.102 482.212 164.004 484.148 158.592C486.142 153.18 488.136 147.882 490.13 142.698H478.082H477.996C477.939 142.698 477.911 142.641 477.911 142.527C477.911 142.186 478.053 141.701 478.338 141.075C478.566 140.391 478.879 139.708 479.278 139.024C479.62 138.283 480.047 137.628 480.56 137.059C481.015 136.432 481.471 136.033 481.927 135.862L493.035 135.35C494.63 131.476 496.14 127.916 497.564 124.668C499.045 121.364 500.355 118.545 501.495 116.209C501.779 115.582 502.064 114.927 502.349 114.244C502.691 113.503 503.147 112.791 503.716 112.107C504.343 111.367 505.14 110.626 506.109 109.886C507.134 109.088 508.501 108.291 510.21 107.493C511.464 106.867 512.973 106.183 514.739 105.442C516.562 104.702 518.328 104.018 520.037 103.392C521.803 102.765 523.398 102.252 524.822 101.854C526.246 101.398 527.272 101.17 527.898 101.17C528.468 101.17 528.753 101.284 528.753 101.512V101.683C528.753 101.74 528.696 101.882 528.582 102.11C528.24 102.68 527.614 103.933 526.702 105.87C525.791 107.75 524.651 110.142 523.284 113.047C521.974 115.896 520.493 119.171 518.841 122.874C517.246 126.52 515.594 130.394 513.885 134.495L534.393 133.726C534.962 133.726 535.133 134.068 534.905 134.751C534.677 135.435 534.25 136.233 533.624 137.144C532.997 138.056 532.256 138.995 531.402 139.964C530.604 140.932 529.921 141.673 529.351 142.186C529.237 142.299 529.009 142.413 528.667 142.527C528.326 142.641 527.898 142.698 527.386 142.698H510.467C508.416 147.654 506.451 152.667 504.571 157.737C502.691 162.807 501.01 167.621 499.529 172.178C498.048 176.736 496.852 180.923 495.94 184.739C495.086 188.556 494.659 191.689 494.659 194.139C494.659 194.48 494.83 194.651 495.171 194.651C495.798 194.651 496.738 194.31 497.991 193.626C499.244 192.885 500.64 191.945 502.178 190.806C503.773 189.667 505.454 188.414 507.22 187.046C508.986 185.679 510.666 184.34 512.261 183.03C513.856 181.663 515.28 180.438 516.534 179.356C517.844 178.217 518.841 177.362 519.524 176.792C520.037 177.305 520.635 177.96 521.319 178.758C522.059 179.555 522.743 180.296 523.37 180.979C522.116 182.233 520.55 183.771 518.67 185.594C516.79 187.36 514.739 189.183 512.518 191.062C510.353 192.942 508.074 194.822 505.682 196.702C503.346 198.582 501.039 200.263 498.76 201.744C496.539 203.225 494.459 204.421 492.522 205.333C490.586 206.244 488.962 206.7 487.652 206.7ZM524.993 206.7C524.139 206.7 523.056 206.386 521.746 205.76C520.436 205.19 519.183 204.45 517.986 203.538C516.79 202.684 515.765 201.715 514.91 200.633C514.056 199.55 513.628 198.497 513.628 197.471C514.198 194.965 514.967 192.088 515.936 188.841C516.904 185.594 517.958 182.29 519.097 178.929C520.18 175.568 521.347 172.292 522.601 169.102C523.797 165.855 524.879 162.978 525.848 160.472C526.873 157.965 527.756 155.943 528.497 154.405C529.237 152.867 529.721 152.098 529.949 152.098C530.291 152.098 531.146 152.468 532.513 153.208C533.88 153.949 535.304 154.861 536.785 155.943C538.323 156.968 539.69 158.079 540.887 159.275C542.083 160.415 542.681 161.412 542.681 162.266C542.681 162.437 542.653 162.665 542.596 162.95C542.539 163.178 542.453 163.491 542.339 163.89C541.884 165.314 541.285 166.994 540.545 168.931C539.861 170.868 539.121 172.89 538.323 174.998C537.526 177.049 536.728 179.128 535.931 181.236C535.133 183.287 534.421 185.223 533.794 187.046C533.168 188.869 532.655 190.464 532.256 191.832C531.858 193.199 531.658 194.196 531.658 194.822C531.658 195.164 531.829 195.335 532.171 195.335C532.798 195.335 533.737 194.965 534.991 194.224C536.244 193.484 537.668 192.515 539.263 191.319C540.915 190.123 542.624 188.812 544.39 187.388C546.156 185.964 547.837 184.568 549.432 183.201C551.084 181.777 552.565 180.495 553.875 179.356C555.185 178.217 556.182 177.362 556.866 176.792C557.378 177.305 557.977 177.96 558.66 178.758C559.401 179.555 560.084 180.296 560.711 180.979C559.458 182.233 557.891 183.771 556.011 185.594C554.131 187.36 552.081 189.183 549.859 191.062C547.694 192.942 545.416 194.822 543.023 196.702C540.687 198.582 538.409 200.263 536.187 201.744C533.965 203.225 531.886 204.421 529.949 205.333C528.012 206.244 526.36 206.7 524.993 206.7ZM558.831 126.036C558.774 126.264 558.546 126.833 558.147 127.745C557.806 128.599 557.378 129.625 556.866 130.821C556.353 131.96 555.755 133.185 555.071 134.495C554.445 135.748 553.818 136.916 553.191 137.999C552.565 139.081 551.967 139.992 551.397 140.733C550.827 141.417 550.372 141.758 550.03 141.758C549.004 141.701 547.751 141.388 546.27 140.818C544.846 140.249 543.45 139.622 542.083 138.938C540.773 138.198 539.633 137.486 538.665 136.802C537.754 136.119 537.298 135.634 537.298 135.35C537.298 134.153 537.64 132.615 538.323 130.735C539.007 128.799 539.804 126.947 540.716 125.181C541.627 123.358 542.539 121.792 543.45 120.481C544.419 119.171 545.159 118.516 545.672 118.516C546.697 118.516 547.951 118.858 549.432 119.542C550.913 120.168 552.337 120.909 553.704 121.763C555.128 122.618 556.325 123.472 557.293 124.327C558.318 125.124 558.831 125.694 558.831 126.036ZM566.351 193.284C566.351 194.993 566.977 195.848 568.23 195.848C569.541 195.848 571.278 194.822 573.443 192.771C575.608 190.664 577.858 188.015 580.193 184.825C580.079 184.198 579.994 183.657 579.937 183.201C579.937 182.688 579.937 182.233 579.937 181.834C579.937 180.695 580.051 179.356 580.279 177.818C580.564 176.223 581.219 174.428 582.244 172.435C582.928 170.896 583.754 169.387 584.722 167.906C585.52 166.596 586.488 165.2 587.627 163.719C588.767 162.181 590.02 160.757 591.387 159.446L591.9 158.934C592.47 159.617 593.21 160.557 594.122 161.753C595.09 162.893 596.03 164.089 596.941 165.342C597.91 166.539 598.736 167.649 599.419 168.675C600.16 169.7 600.616 170.412 600.787 170.811C600.787 173.261 600.331 175.71 599.419 178.16C598.565 180.609 597.397 183.03 595.916 185.423C599.334 185.195 602.496 184.34 605.401 182.859C608.363 181.321 611.439 178.843 614.629 175.425C615.142 175.938 615.797 176.65 616.595 177.562C617.449 178.416 618.133 179.157 618.646 179.783C616.253 182.29 613.889 184.369 611.553 186.021C609.275 187.673 606.967 188.983 604.632 189.952C602.353 190.92 600.018 191.632 597.625 192.088C595.232 192.487 592.783 192.686 590.276 192.686C588.34 194.737 586.26 196.617 584.039 198.326C581.817 200.035 579.538 201.516 577.203 202.769C574.924 204.022 572.645 204.991 570.367 205.674C568.088 206.358 565.923 206.7 563.873 206.7C562.164 206.7 560.398 206.187 558.575 205.162C556.752 204.136 555.1 202.883 553.619 201.402C552.138 199.864 550.913 198.24 549.944 196.531C548.976 194.822 548.492 193.313 548.492 192.002C548.492 187.673 549.09 183.372 550.286 179.1C551.425 174.827 553.248 170.84 555.755 167.137C558.204 163.377 561.338 160.073 565.154 157.225C569.028 154.376 573.614 152.212 578.912 150.73C579.083 150.617 579.367 150.531 579.766 150.474C580.222 150.417 580.592 150.389 580.877 150.389C581.674 150.389 582.5 150.702 583.355 151.329C584.266 151.898 585.092 152.553 585.833 153.294C586.631 154.035 587.286 154.775 587.798 155.516C588.311 156.199 588.567 156.655 588.567 156.883C588.453 157.168 588.026 157.538 587.286 157.994C586.545 158.392 585.548 159.104 584.295 160.13C583.042 161.155 581.561 162.636 579.852 164.573C578.143 166.453 576.263 168.96 574.212 172.093C571.136 176.707 569.056 180.894 567.974 184.654C566.892 188.357 566.351 191.233 566.351 193.284ZM637.615 160.728C636.932 162.551 636.248 164.402 635.564 166.282C634.881 168.162 634.197 170.099 633.514 172.093C637.103 167.991 640.179 164.659 642.742 162.095C645.363 159.475 647.556 157.424 649.322 155.943C651.145 154.462 652.597 153.465 653.68 152.952C654.819 152.382 655.702 152.098 656.329 152.098C657.069 152.098 658.18 152.468 659.661 153.208C661.142 153.949 662.623 154.861 664.104 155.943C665.643 157.025 666.953 158.136 668.035 159.275C669.174 160.415 669.744 161.412 669.744 162.266C669.744 162.437 669.716 162.665 669.659 162.95C669.602 163.178 669.516 163.491 669.402 163.89C668.947 165.314 668.348 166.994 667.608 168.931C666.924 170.868 666.184 172.89 665.386 174.998C664.589 177.049 663.791 179.128 662.994 181.236C662.196 183.287 661.484 185.223 660.857 187.046C660.231 188.869 659.718 190.464 659.319 191.832C658.921 193.199 658.721 194.196 658.721 194.822C658.721 195.164 658.892 195.335 659.234 195.335C659.861 195.335 660.8 194.965 662.054 194.224C663.307 193.484 664.731 192.515 666.326 191.319C667.978 190.123 669.687 188.812 671.453 187.388C673.219 185.964 674.9 184.568 676.495 183.201C678.147 181.777 679.628 180.495 680.938 179.356C682.248 178.217 683.245 177.362 683.929 176.792C684.498 177.305 685.125 177.96 685.809 178.758C686.492 179.555 687.147 180.296 687.774 180.979C686.521 182.233 684.954 183.771 683.074 185.594C681.194 187.36 679.144 189.183 676.922 191.062C674.757 192.942 672.479 194.822 670.086 196.702C667.75 198.582 665.472 200.263 663.25 201.744C661.028 203.225 658.949 204.421 657.012 205.333C655.075 206.244 653.452 206.7 652.142 206.7C651.287 206.7 650.205 206.386 648.895 205.76C647.584 205.19 646.303 204.45 645.049 203.538C643.853 202.684 642.828 201.715 641.973 200.633C641.119 199.55 640.691 198.497 640.691 197.471C641.204 195.136 641.888 192.487 642.742 189.524C643.654 186.562 644.622 183.543 645.647 180.467C646.673 177.334 647.727 174.257 648.809 171.238C649.948 168.162 651.031 165.342 652.056 162.779L651.885 162.95C650.803 164.26 649.236 165.997 647.186 168.162C645.192 170.27 642.913 173.004 640.35 176.365C637.786 179.669 635.08 183.685 632.232 188.414C629.384 193.085 626.592 198.639 623.858 205.076C623.516 205.874 623.203 206.5 622.918 206.956C622.633 207.412 622.092 207.64 621.294 207.64C620.326 207.64 619.215 207.355 617.962 206.785C616.766 206.272 615.541 205.56 614.288 204.649C612.977 203.794 611.696 202.826 610.442 201.744C609.132 200.661 607.964 199.579 606.939 198.497C606.939 198.155 607.11 197.186 607.452 195.591C607.736 193.996 608.164 192.002 608.733 189.61C609.303 187.16 610.015 184.397 610.87 181.321C611.724 178.188 612.693 174.913 613.775 171.495C614.857 168.077 616.054 164.602 617.364 161.07C618.617 157.481 619.984 154.035 621.465 150.73C623.858 151.87 626.507 153.265 629.412 154.917C632.374 156.569 635.109 158.506 637.615 160.728ZM682.22 178.416C683.53 177.163 685.04 175.739 686.749 174.144C688.401 172.549 690.053 170.811 691.705 168.931C693.414 167.051 694.98 165.029 696.404 162.864C697.885 160.7 699.053 158.364 699.908 155.857C700.136 154.547 700.477 153.18 700.933 151.756C701.446 150.275 701.987 148.936 702.557 147.74C703.183 146.543 703.781 145.547 704.351 144.749C704.921 143.951 705.433 143.553 705.889 143.553C706.573 143.951 707.598 144.721 708.965 145.86C710.333 146.942 711.7 148.11 713.067 149.363C714.434 150.617 715.63 151.784 716.656 152.867C717.738 153.892 718.279 154.519 718.279 154.747C717.596 157.367 717.254 159.731 717.254 161.839C717.311 163.947 717.482 166.026 717.767 168.077C718.108 170.127 718.45 172.321 718.792 174.656C719.191 176.935 719.39 179.584 719.39 182.603C719.39 184.426 719.077 186.534 718.45 188.926C717.881 191.262 716.855 193.37 715.374 195.25C718.279 193.541 721.156 191.632 724.004 189.524C726.853 187.36 729.388 185.337 731.609 183.458C734.23 181.236 736.736 179.014 739.129 176.792L742.974 180.979C741.094 182.745 739.043 184.625 736.822 186.619C734.657 188.613 732.378 190.578 729.986 192.515C727.65 194.452 725.258 196.303 722.808 198.069C720.359 199.835 717.938 201.402 715.545 202.769C713.152 204.136 710.845 205.219 708.624 206.016C706.402 206.814 704.323 207.212 702.386 207.212C700.734 207.212 698.911 206.814 696.917 206.016C694.923 205.219 693.043 204.25 691.277 203.111C689.511 201.972 687.973 200.775 686.663 199.522C685.353 198.269 684.584 197.215 684.356 196.36C684.356 196.246 684.47 196.019 684.698 195.677C684.926 195.278 685.21 194.879 685.552 194.48C685.837 194.082 686.15 193.74 686.492 193.455C686.777 193.113 687.005 192.942 687.176 192.942C687.518 192.942 688.201 193.199 689.227 193.711C690.252 194.224 691.961 194.48 694.354 194.48C695.664 194.48 696.775 194.139 697.686 193.455C698.654 192.771 699.452 191.86 700.079 190.721C700.705 189.581 701.161 188.271 701.446 186.79C701.731 185.309 701.873 183.742 701.873 182.09C701.873 179.698 701.759 177.391 701.531 175.169C701.303 172.89 701.047 170.697 700.762 168.589C699.794 169.729 698.683 170.925 697.43 172.178C696.176 173.431 694.895 174.685 693.584 175.938C692.331 177.134 691.049 178.331 689.739 179.527C688.486 180.666 687.347 181.692 686.321 182.603L682.22 178.416ZM800.481 157.396C800.254 158.421 799.912 159.788 799.456 161.497C799.057 163.206 798.602 164.972 798.089 166.795C797.576 168.561 797.035 170.213 796.465 171.751C795.953 173.232 795.525 174.229 795.184 174.742C794.5 174.742 792.962 174.77 790.569 174.827C788.234 174.827 785.471 174.856 782.281 174.913C779.091 174.913 775.701 174.941 772.112 174.998C768.523 175.055 765.191 175.083 762.115 175.083C759.039 175.083 756.418 175.055 754.253 174.998C752.146 174.941 750.921 174.856 750.579 174.742C750.75 174.058 750.978 173.061 751.263 171.751C751.604 170.441 751.975 169.074 752.374 167.649C752.772 166.225 753.171 164.887 753.57 163.633C753.969 162.38 754.31 161.526 754.595 161.07C755.051 160.899 756.418 160.7 758.697 160.472C761.032 160.187 763.824 159.902 767.071 159.617C770.375 159.332 773.878 159.076 777.581 158.848C781.341 158.563 784.844 158.335 788.091 158.165C791.338 157.937 794.101 157.766 796.38 157.652C798.715 157.481 800.083 157.396 800.481 157.396ZM932.757 93.4795C929.965 93.3656 927.146 93.2231 924.297 93.0522C921.449 92.8813 918.401 92.7104 915.154 92.5396C911.907 92.3687 908.318 92.2262 904.388 92.1123C900.514 91.9984 896.128 91.9414 891.229 91.9414C884.962 91.9414 878.895 92.1123 873.028 92.4541C867.16 92.7389 861.35 93.3086 855.596 94.1631C849.843 95.0176 844.089 96.2139 838.335 97.752C832.582 99.29 826.686 101.312 820.647 103.819C823.097 110.655 825.062 117.348 826.543 123.899C828.025 130.451 829.164 136.688 829.961 142.613C830.816 148.537 831.386 154.091 831.67 159.275C831.955 164.459 832.098 169.131 832.098 173.289C832.098 177.22 832.012 180.695 831.841 183.714C831.67 186.676 831.471 189.154 831.243 191.148C831.015 193.541 830.73 195.591 830.389 197.3C833.123 190.806 835.772 183.942 838.335 176.707C840.956 169.415 843.434 162.209 845.77 155.088C848.105 147.911 850.27 140.989 852.264 134.324C854.257 127.659 855.995 121.678 857.476 116.38C859.014 111.082 860.267 106.667 861.236 103.135C862.204 99.5464 862.831 97.2677 863.116 96.2993C864.369 97.3247 865.879 98.6349 867.645 100.23C869.467 101.825 871.29 103.477 873.113 105.186C874.936 106.895 876.617 108.547 878.155 110.142C879.75 111.68 880.975 112.962 881.829 113.987C880.405 119.285 878.525 125.124 876.189 131.504C873.854 137.885 871.262 144.464 868.414 151.243C865.622 158.022 862.688 164.83 859.612 171.666C856.536 178.444 853.545 184.882 850.64 190.977C847.735 197.072 845.029 202.627 842.522 207.64C840.073 212.653 838.051 216.783 836.456 220.03C835.601 219.175 834.547 218.007 833.294 216.526C832.041 215.045 830.759 213.536 829.449 211.998C828.139 210.516 826.914 209.121 825.774 207.811C824.692 206.5 823.895 205.56 823.382 204.991C823.496 204.307 823.695 203.139 823.98 201.487C824.322 199.778 824.635 197.671 824.92 195.164C825.262 192.601 825.547 189.638 825.774 186.277C826.002 182.916 826.116 179.185 826.116 175.083C826.116 170.412 825.917 165.399 825.518 160.044C825.119 154.633 824.322 149.021 823.125 143.211C821.986 137.4 820.334 131.419 818.169 125.267C816.005 119.114 813.185 112.905 809.71 106.639C809.653 106.639 809.625 106.61 809.625 106.553C809.568 106.496 809.539 106.354 809.539 106.126C809.539 105.556 809.738 104.787 810.137 103.819C810.536 102.793 811.049 101.711 811.675 100.572C812.359 99.3755 813.071 98.2077 813.812 97.0684C814.609 95.8721 815.35 94.8467 816.033 93.9922C816.318 93.6504 817.685 92.8529 820.135 91.5996C822.584 90.2894 825.945 88.7513 830.218 86.9854C834.547 85.2194 839.674 83.3395 845.599 81.3457C851.58 79.3519 858.188 77.529 865.423 75.877C872.658 74.168 880.433 72.7723 888.75 71.6899C897.125 70.6076 905.84 70.0664 914.898 70.0664C915.297 70.5221 915.923 71.2912 916.778 72.3735C917.689 73.3989 918.715 74.6237 919.854 76.0479C920.993 77.415 922.19 78.9246 923.443 80.5767C924.753 82.1717 926.006 83.7668 927.203 85.3618C928.399 86.8999 929.481 88.381 930.45 89.8052C931.418 91.2293 932.187 92.4541 932.757 93.4795ZM896.185 193.284C896.185 194.993 896.811 195.848 898.064 195.848C899.375 195.848 901.112 194.822 903.277 192.771C905.442 190.664 907.692 188.015 910.027 184.825C909.913 184.198 909.828 183.657 909.771 183.201C909.771 182.688 909.771 182.233 909.771 181.834C909.771 180.695 909.885 179.356 910.113 177.818C910.398 176.223 911.053 174.428 912.078 172.435C912.762 170.896 913.588 169.387 914.556 167.906C915.354 166.596 916.322 165.2 917.461 163.719C918.601 162.181 919.854 160.757 921.221 159.446L921.734 158.934C922.304 159.617 923.044 160.557 923.956 161.753C924.924 162.893 925.864 164.089 926.775 165.342C927.744 166.539 928.57 167.649 929.253 168.675C929.994 169.7 930.45 170.412 930.621 170.811C930.621 173.261 930.165 175.71 929.253 178.16C928.399 180.609 927.231 183.03 925.75 185.423C929.168 185.195 932.33 184.34 935.235 182.859C938.197 181.321 941.273 178.843 944.463 175.425C944.976 175.938 945.631 176.65 946.429 177.562C947.283 178.416 947.967 179.157 948.479 179.783C946.087 182.29 943.723 184.369 941.387 186.021C939.109 187.673 936.801 188.983 934.466 189.952C932.187 190.92 929.852 191.632 927.459 192.088C925.066 192.487 922.617 192.686 920.11 192.686C918.174 194.737 916.094 196.617 913.873 198.326C911.651 200.035 909.372 201.516 907.037 202.769C904.758 204.022 902.479 204.991 900.201 205.674C897.922 206.358 895.757 206.7 893.707 206.7C891.998 206.7 890.232 206.187 888.409 205.162C886.586 204.136 884.934 202.883 883.453 201.402C881.972 199.864 880.747 198.24 879.778 196.531C878.81 194.822 878.326 193.313 878.326 192.002C878.326 187.673 878.924 183.372 880.12 179.1C881.259 174.827 883.082 170.84 885.589 167.137C888.038 163.377 891.172 160.073 894.988 157.225C898.862 154.376 903.448 152.212 908.746 150.73C908.917 150.617 909.201 150.531 909.6 150.474C910.056 150.417 910.426 150.389 910.711 150.389C911.508 150.389 912.334 150.702 913.189 151.329C914.1 151.898 914.926 152.553 915.667 153.294C916.465 154.035 917.12 154.775 917.632 155.516C918.145 156.199 918.401 156.655 918.401 156.883C918.287 157.168 917.86 157.538 917.12 157.994C916.379 158.392 915.382 159.104 914.129 160.13C912.876 161.155 911.395 162.636 909.686 164.573C907.977 166.453 906.097 168.96 904.046 172.093C900.97 176.707 898.89 180.894 897.808 184.654C896.726 188.357 896.185 191.233 896.185 193.284ZM1036.75 156.114C1036.41 156.513 1035.64 157.994 1034.44 160.557C1033.25 163.121 1031.79 166.425 1030.08 170.469C1028.43 174.514 1026.64 179.185 1024.7 184.483C1022.76 189.781 1020.85 195.392 1018.98 201.316C1017.1 207.184 1015.36 213.222 1013.76 219.432C1012.17 225.641 1010.89 231.679 1009.92 237.547C1008.38 238.003 1006.61 238.458 1004.62 238.914C1002.68 239.37 1000.75 239.797 998.809 240.196C996.872 240.595 995.106 240.908 993.511 241.136C991.916 241.421 990.748 241.563 990.008 241.563C991.033 237.177 992.03 232.99 992.999 229.002C994.024 225.014 995.135 221.112 996.331 217.295C997.527 213.536 998.838 209.804 1000.26 206.102C1001.74 202.399 1003.45 198.582 1005.39 194.651C1003.22 197.443 1000.92 200.149 998.467 202.769C996.075 205.389 993.597 207.725 991.033 209.776C988.527 211.827 985.963 213.45 983.343 214.646C980.779 215.9 978.216 216.526 975.652 216.526C973.886 216.526 971.893 216.042 969.671 215.074C967.506 214.105 965.313 212.767 963.091 211.058C960.87 209.406 958.705 207.412 956.597 205.076C954.489 202.798 952.61 200.319 950.958 197.642C949.362 194.965 948.081 192.145 947.112 189.183C946.087 186.22 945.574 183.258 945.574 180.296C945.574 175.397 946.258 170.042 947.625 164.231C948.992 158.421 950.901 152.439 953.35 146.287C955.8 140.135 958.762 133.954 962.237 127.745C965.712 121.478 969.528 115.468 973.687 109.715C977.846 103.961 982.289 98.6064 987.017 93.6504C991.802 88.6374 996.758 84.2795 1001.89 80.5767C1007.01 76.8739 1012.22 73.9686 1017.52 71.8608C1022.82 69.6961 1028.12 68.6138 1033.42 68.6138C1035.41 68.6138 1037.35 69.0695 1039.23 69.981C1041.16 70.8354 1042.96 71.9463 1044.61 73.3135C1046.32 74.6237 1047.86 76.0763 1049.22 77.6714C1050.65 79.2664 1051.84 80.7476 1052.81 82.1147C1053.95 83.7668 1054.98 85.6751 1055.89 87.8398C1056.86 90.0046 1057.34 92.1693 1057.34 94.334C1057.34 97.9798 1056.77 101.825 1055.63 105.87C1054.55 109.914 1053.04 113.93 1051.1 117.918C1049.17 121.906 1046.89 125.779 1044.27 129.539C1041.65 133.242 1038.83 136.574 1035.81 139.537L1020.77 125.523C1022.48 123.757 1024.53 121.478 1026.92 118.687C1029.31 115.896 1031.59 112.763 1033.76 109.288C1035.92 105.756 1037.77 102.024 1039.31 98.0938C1040.85 94.1061 1041.62 90.0615 1041.62 85.96C1041.62 85.2764 1041.59 84.5073 1041.53 83.6528C1041.48 82.7983 1041.28 82.0008 1040.94 81.2603C1040.65 80.5197 1040.17 79.8931 1039.48 79.3804C1038.86 78.8677 1037.94 78.6113 1036.75 78.6113C1033.56 78.6113 1030.06 79.8076 1026.24 82.2002C1022.48 84.5928 1018.58 87.8398 1014.53 91.9414C1010.54 95.986 1006.5 100.743 1002.4 106.211C998.353 111.623 994.451 117.377 990.691 123.472C986.932 129.568 983.4 135.834 980.096 142.271C976.849 148.651 974 154.861 971.551 160.899C969.158 166.937 967.25 172.605 965.826 177.903C964.458 183.201 963.775 187.787 963.775 191.661C963.775 195.25 964.202 197.813 965.057 199.351C965.968 200.889 967.221 201.658 968.816 201.658C970.753 201.658 972.946 201.032 975.396 199.778C977.846 198.468 980.381 196.788 983.001 194.737C985.678 192.629 988.327 190.293 990.948 187.73C993.625 185.11 996.103 182.489 998.382 179.869C1000.72 177.191 1002.8 174.628 1004.62 172.178C1006.5 169.729 1007.98 167.649 1009.06 165.94C1010.09 164.288 1010.97 162.579 1011.71 160.813C1012.45 159.048 1013.31 157.253 1014.28 155.43C1016.44 155.43 1018.43 155.459 1020.26 155.516C1022.14 155.573 1023.96 155.658 1025.73 155.772C1027.55 155.829 1029.34 155.886 1031.11 155.943C1032.87 156 1034.75 156.057 1036.75 156.114ZM1056.66 193.284C1056.66 194.993 1057.28 195.848 1058.54 195.848C1059.85 195.848 1061.59 194.822 1063.75 192.771C1065.92 190.664 1068.17 188.015 1070.5 184.825C1070.39 184.198 1070.3 183.657 1070.24 183.201C1070.24 182.688 1070.24 182.233 1070.24 181.834C1070.24 180.695 1070.36 179.356 1070.59 177.818C1070.87 176.223 1071.53 174.428 1072.55 172.435C1073.24 170.896 1074.06 169.387 1075.03 167.906C1075.83 166.596 1076.8 165.2 1077.94 163.719C1079.07 162.181 1080.33 160.757 1081.69 159.446L1082.21 158.934C1082.78 159.617 1083.52 160.557 1084.43 161.753C1085.4 162.893 1086.34 164.089 1087.25 165.342C1088.22 166.539 1089.04 167.649 1089.73 168.675C1090.47 169.7 1090.92 170.412 1091.09 170.811C1091.09 173.261 1090.64 175.71 1089.73 178.16C1088.87 180.609 1087.7 183.03 1086.22 185.423C1089.64 185.195 1092.8 184.34 1095.71 182.859C1098.67 181.321 1101.75 178.843 1104.94 175.425C1105.45 175.938 1106.1 176.65 1106.9 177.562C1107.76 178.416 1108.44 179.157 1108.95 179.783C1106.56 182.29 1104.2 184.369 1101.86 186.021C1099.58 187.673 1097.28 188.983 1094.94 189.952C1092.66 190.92 1090.33 191.632 1087.93 192.088C1085.54 192.487 1083.09 192.686 1080.58 192.686C1078.65 194.737 1076.57 196.617 1074.35 198.326C1072.12 200.035 1069.85 201.516 1067.51 202.769C1065.23 204.022 1062.95 204.991 1060.67 205.674C1058.4 206.358 1056.23 206.7 1054.18 206.7C1052.47 206.7 1050.71 206.187 1048.88 205.162C1047.06 204.136 1045.41 202.883 1043.93 201.402C1042.45 199.864 1041.22 198.24 1040.25 196.531C1039.28 194.822 1038.8 193.313 1038.8 192.002C1038.8 187.673 1039.4 183.372 1040.59 179.1C1041.73 174.827 1043.56 170.84 1046.06 167.137C1048.51 163.377 1051.65 160.073 1055.46 157.225C1059.34 154.376 1063.92 152.212 1069.22 150.73C1069.39 150.617 1069.67 150.531 1070.07 150.474C1070.53 150.417 1070.9 150.389 1071.18 150.389C1071.98 150.389 1072.81 150.702 1073.66 151.329C1074.57 151.898 1075.4 152.553 1076.14 153.294C1076.94 154.035 1077.59 154.775 1078.11 155.516C1078.62 156.199 1078.88 156.655 1078.88 156.883C1078.76 157.168 1078.33 157.538 1077.59 157.994C1076.85 158.392 1075.86 159.104 1074.6 160.13C1073.35 161.155 1071.87 162.636 1070.16 164.573C1068.45 166.453 1066.57 168.96 1064.52 172.093C1061.44 176.707 1059.36 180.894 1058.28 184.654C1057.2 188.357 1056.66 191.233 1056.66 193.284Z" fill="white"/>
</g>
<defs>
<clipPath id="clip0_0_1">
<rect width="1304" height="502" fill="white"/>
</clipPath>
</defs>
</svg>
