<svg width="1304" height="502" viewBox="0 0 1304 502" fill="none" xmlns="http://www.w3.org/2000/svg">
<rect width="1304" height="502" fill="#E5E5E5"/>
<rect width="1304" height="502" fill="white"/>
<rect width="1304" height="502" fill="#003192"/>
<path d="M303.184 195.103C301.304 205.129 298.341 214.87 294.297 224.327C290.252 233.726 285.553 242.641 280.198 251.072C274.9 259.446 269.118 267.251 262.852 274.485C256.642 281.72 250.404 288.186 244.138 293.882C237.929 299.522 231.919 304.307 226.108 308.238C220.298 312.168 215.142 315.045 210.642 316.868C210.015 317.153 209.446 317.324 208.933 317.381C208.477 317.495 208.164 317.552 207.993 317.552C206.854 317.552 205.658 317.096 204.404 316.185C203.208 315.273 202.04 314.219 200.901 313.023C199.819 311.827 198.85 310.63 197.996 309.434C197.198 308.238 196.628 307.326 196.287 306.7C196.002 306.244 195.717 305.56 195.432 304.649C195.147 303.794 195.005 302.798 195.005 301.658C195.005 298.696 195.318 294.708 195.945 289.695C196.571 284.625 197.483 278.843 198.679 272.349C199.875 265.855 201.271 258.791 202.866 251.158C204.518 243.524 206.37 235.634 208.42 227.488C210.471 219.342 212.664 211.082 215 202.708C217.336 194.277 219.785 186.074 222.349 178.099C223.203 179.01 224.257 180.206 225.51 181.688C226.764 183.169 228.074 184.764 229.441 186.473C230.808 188.125 232.147 189.805 233.457 191.514C234.824 193.223 236.021 194.761 237.046 196.128C238.128 197.496 238.983 198.635 239.609 199.546C240.236 200.401 240.549 200.828 240.549 200.828C237.473 209.829 234.596 218.858 231.919 227.916C229.299 236.973 226.82 245.86 224.485 254.576C222.206 263.235 220.07 271.609 218.076 279.698C216.082 287.787 214.231 295.363 212.522 302.427C219.244 298.326 225.539 293.455 231.406 287.815C237.331 282.176 242.771 276.052 247.727 269.444C252.683 262.779 257.098 255.772 260.972 248.423C264.902 241.018 268.206 233.555 270.884 226.036C273.618 218.459 275.697 210.968 277.122 203.562C278.546 196.1 279.258 188.951 279.258 182.115C279.258 180.178 279.172 178.526 279.001 177.159C278.888 175.735 278.745 174.538 278.574 173.57C278.403 172.601 278.232 171.861 278.062 171.348C277.948 170.778 277.862 170.351 277.805 170.066L303.184 195.103ZM334.543 294.48C334.543 294.822 334.714 294.993 335.056 294.993C335.569 294.993 336.423 294.623 337.62 293.882C338.816 293.142 340.183 292.202 341.721 291.062C343.259 289.923 344.883 288.641 346.592 287.217C348.358 285.793 350.038 284.397 351.633 283.03C353.228 281.663 354.653 280.41 355.906 279.271C357.216 278.131 358.213 277.248 358.896 276.622C359.409 277.134 360.036 277.818 360.776 278.672C361.574 279.527 362.286 280.296 362.913 280.979C361.545 282.233 359.893 283.771 357.957 285.594C356.077 287.36 354.026 289.211 351.804 291.148C349.639 293.085 347.389 295.022 345.054 296.958C342.718 298.838 340.439 300.519 338.218 302C335.996 303.481 333.888 304.677 331.895 305.589C329.901 306.557 328.163 307.042 326.682 307.042C325.657 307.042 324.517 306.842 323.264 306.443C322.068 306.045 320.957 305.475 319.932 304.734C318.906 304.051 318.052 303.225 317.368 302.256C316.685 301.288 316.343 300.206 316.343 299.009C316.343 298.554 316.314 298.012 316.257 297.386C316.257 296.702 316.314 295.848 316.428 294.822C316.542 293.74 316.77 292.458 317.112 290.977C317.454 289.439 317.966 287.559 318.65 285.337C316.77 287.331 314.548 289.41 311.985 291.575C309.478 293.74 306.829 295.791 304.038 297.728C301.247 299.664 298.427 301.402 295.579 302.94C292.787 304.535 290.195 305.731 287.803 306.529C287.518 306.643 287.29 306.7 287.119 306.7C286.948 306.7 286.777 306.7 286.606 306.7C286.037 306.7 285.296 306.415 284.385 305.845C283.416 305.276 282.476 304.507 281.565 303.538C280.653 302.627 279.884 301.573 279.258 300.376C278.574 299.18 278.232 297.984 278.232 296.788C278.232 296.446 278.403 295.306 278.745 293.37C279.087 291.433 279.913 288.983 281.223 286.021C282.476 283.002 284.356 279.641 286.863 275.938C289.369 272.178 292.787 268.333 297.117 264.402C299.338 262.409 301.731 260.529 304.294 258.763C306.459 257.282 308.937 255.772 311.729 254.234C314.52 252.696 317.454 251.471 320.53 250.56C320.644 250.56 320.729 250.531 320.786 250.474C320.9 250.417 321.042 250.446 321.213 250.56C321.897 250.787 322.694 251.158 323.606 251.67C324.574 252.126 325.514 252.639 326.426 253.208C327.394 253.721 328.22 254.262 328.904 254.832C329.644 255.345 330.129 255.772 330.356 256.114C330.413 256.228 330.413 256.313 330.356 256.37L330.186 256.541C327.622 257.908 325.201 259.446 322.922 261.155C320.644 262.807 318.621 264.374 316.855 265.855C314.805 267.621 312.896 269.358 311.13 271.067C306.972 275.169 304.095 278.729 302.5 281.749C300.905 284.711 300.107 286.847 300.107 288.157C300.107 289.126 300.506 289.61 301.304 289.61C302.101 289.61 303.098 289.297 304.294 288.67C305.548 287.986 306.943 287.103 308.481 286.021C310.02 284.882 311.7 283.571 313.523 282.09C315.403 280.552 317.34 278.957 319.333 277.305C321.099 275.881 322.808 274.343 324.46 272.691C325.885 271.324 327.366 269.757 328.904 267.991C330.442 266.225 331.752 264.431 332.834 262.608C332.834 262.551 332.863 262.494 332.92 262.437C332.977 262.38 333.062 262.38 333.176 262.437C333.803 262.893 334.515 263.662 335.312 264.744C336.11 265.77 336.851 266.909 337.534 268.162C338.218 269.415 338.787 270.64 339.243 271.836C339.756 272.976 340.012 273.859 340.012 274.485C338.702 277.163 337.677 279.612 336.936 281.834C336.252 283.999 335.711 285.907 335.312 287.559C334.971 289.211 334.743 290.635 334.629 291.832C334.572 292.971 334.543 293.854 334.543 294.48ZM366.074 308.323C365.049 308.323 363.881 307.981 362.571 307.298C361.261 306.671 359.922 305.788 358.555 304.649C357.188 303.567 355.877 302.285 354.624 300.804C353.314 299.266 352.231 297.671 351.377 296.019C351.035 295.392 350.807 294.68 350.693 293.882C350.579 293.085 350.522 292.059 350.522 290.806C350.522 287.559 351.035 284.312 352.061 281.065C353.029 277.761 354.396 274.628 356.162 271.666C357.928 268.703 360.064 265.94 362.571 263.377C365.02 260.757 367.698 258.506 370.603 256.626C373.508 254.747 376.613 253.265 379.917 252.183C383.221 251.101 386.582 250.56 390 250.56C390.513 250.56 391.196 250.844 392.051 251.414C392.962 251.927 393.931 252.639 394.956 253.55C395.981 254.462 397.007 255.487 398.032 256.626C399.115 257.766 400.083 258.934 400.938 260.13C401.792 261.269 402.476 262.409 402.988 263.548C403.558 264.63 403.843 265.599 403.843 266.453C403.558 267.535 402.675 268.732 401.194 270.042C399.713 271.295 397.947 272.492 395.896 273.631C393.902 274.713 391.794 275.625 389.573 276.365C387.351 277.106 385.414 277.476 383.762 277.476C382.794 277.476 382.31 277.191 382.31 276.622C382.31 275.995 382.737 275.083 383.591 273.887C384.446 272.634 385.386 271.295 386.411 269.871C387.493 268.39 388.462 266.937 389.316 265.513C390.171 264.032 390.598 262.779 390.598 261.753C390.598 261.241 390.456 260.813 390.171 260.472C389.943 260.13 389.601 259.959 389.146 259.959C387.892 259.959 386.582 260.529 385.215 261.668C383.848 262.807 382.48 264.317 381.113 266.197C379.746 268.077 378.436 270.241 377.183 272.691C375.929 275.083 374.819 277.562 373.85 280.125C372.939 282.688 372.198 285.252 371.628 287.815C371.059 290.379 370.774 292.715 370.774 294.822C370.774 296.076 371.144 296.958 371.885 297.471C372.625 297.927 373.765 298.155 375.303 298.155C379.119 298.155 382.794 297.528 386.326 296.275C389.915 294.965 393.333 293.313 396.58 291.319C399.884 289.268 403.017 286.989 405.979 284.483C408.941 281.976 411.733 279.47 414.353 276.963C414.98 277.704 415.749 278.444 416.66 279.185C417.572 279.869 418.255 280.467 418.711 280.979C415.179 284.682 411.419 288.214 407.432 291.575C403.501 294.879 399.342 297.785 394.956 300.291C390.57 302.741 385.955 304.677 381.113 306.102C376.328 307.583 371.315 308.323 366.074 308.323ZM462.717 294.48C462.717 294.822 462.888 294.993 463.23 294.993C463.743 294.993 464.597 294.623 465.793 293.882C466.99 293.142 468.357 292.202 469.895 291.062C471.433 289.923 473.057 288.641 474.766 287.217C476.532 285.793 478.212 284.397 479.807 283.03C481.402 281.663 482.826 280.41 484.08 279.271C485.39 278.131 486.387 277.248 487.07 276.622C487.583 277.134 488.21 277.818 488.95 278.672C489.748 279.527 490.46 280.296 491.086 280.979C489.719 282.233 488.067 283.771 486.13 285.594C484.25 287.36 482.2 289.211 479.978 291.148C477.813 293.085 475.563 295.022 473.228 296.958C470.892 298.838 468.613 300.519 466.392 302C464.17 303.481 462.062 304.677 460.068 305.589C458.075 306.557 456.337 307.042 454.856 307.042C453.831 307.042 452.691 306.842 451.438 306.443C450.242 306.045 449.131 305.475 448.105 304.734C447.08 304.051 446.226 303.225 445.542 302.256C444.858 301.288 444.517 300.206 444.517 299.009C444.517 298.554 444.488 298.012 444.431 297.386C444.431 296.702 444.488 295.848 444.602 294.822C444.716 293.74 444.944 292.458 445.286 290.977C445.627 289.439 446.14 287.559 446.824 285.337C444.944 287.331 442.722 289.41 440.159 291.575C437.652 293.74 435.003 295.791 432.212 297.728C429.421 299.664 426.601 301.402 423.752 302.94C420.961 304.535 418.369 305.731 415.977 306.529C415.692 306.643 415.464 306.7 415.293 306.7C415.122 306.7 414.951 306.7 414.78 306.7C414.211 306.7 413.47 306.415 412.559 305.845C411.59 305.276 410.65 304.507 409.739 303.538C408.827 302.627 408.058 301.573 407.432 300.376C406.748 299.18 406.406 297.984 406.406 296.788C406.406 296.446 406.577 295.306 406.919 293.37C407.261 291.433 408.087 288.983 409.397 286.021C410.65 283.002 412.53 279.641 415.037 275.938C417.543 272.178 420.961 268.333 425.291 264.402C427.512 262.409 429.905 260.529 432.468 258.763C434.633 257.282 437.111 255.772 439.902 254.234C442.694 252.696 445.627 251.471 448.704 250.56C448.818 250.56 448.903 250.531 448.96 250.474C449.074 250.417 449.216 250.446 449.387 250.56C450.071 250.787 450.868 251.158 451.78 251.67C452.748 252.126 453.688 252.639 454.6 253.208C455.568 253.721 456.394 254.262 457.078 254.832C457.818 255.345 458.302 255.772 458.53 256.114C458.587 256.228 458.587 256.313 458.53 256.37L458.359 256.541C455.796 257.908 453.375 259.446 451.096 261.155C448.818 262.807 446.795 264.374 445.029 265.855C442.979 267.621 441.07 269.358 439.304 271.067C435.146 275.169 432.269 278.729 430.674 281.749C429.079 284.711 428.281 286.847 428.281 288.157C428.281 289.126 428.68 289.61 429.478 289.61C430.275 289.61 431.272 289.297 432.468 288.67C433.722 287.986 435.117 287.103 436.655 286.021C438.193 284.882 439.874 283.571 441.697 282.09C443.577 280.552 445.514 278.957 447.507 277.305C449.273 275.881 450.982 274.343 452.634 272.691C454.058 271.324 455.54 269.757 457.078 267.991C458.616 266.225 459.926 264.431 461.008 262.608C461.008 262.551 461.037 262.494 461.094 262.437C461.151 262.38 461.236 262.38 461.35 262.437C461.977 262.893 462.689 263.662 463.486 264.744C464.284 265.77 465.024 266.909 465.708 268.162C466.392 269.415 466.961 270.64 467.417 271.836C467.93 272.976 468.186 273.859 468.186 274.485C466.876 277.163 465.85 279.612 465.11 281.834C464.426 283.999 463.885 285.907 463.486 287.559C463.145 289.211 462.917 290.635 462.803 291.832C462.746 292.971 462.717 293.854 462.717 294.48ZM495.273 306.7C494.305 306.7 493.023 306.244 491.428 305.333C489.89 304.478 488.381 303.396 486.899 302.085C485.418 300.832 484.137 299.522 483.054 298.155C481.972 296.788 481.431 295.62 481.431 294.651C481.431 292.942 481.915 290.236 482.883 286.534C483.795 282.831 485.02 278.615 486.558 273.887C488.096 269.102 489.833 264.004 491.77 258.592C493.764 253.18 495.758 247.882 497.751 242.698H485.703H485.618C485.561 242.698 485.532 242.641 485.532 242.527C485.532 242.186 485.675 241.701 485.959 241.075C486.187 240.391 486.501 239.708 486.899 239.024C487.241 238.283 487.668 237.628 488.181 237.059C488.637 236.432 489.093 236.033 489.548 235.862L500.657 235.35C502.252 231.476 503.761 227.916 505.186 224.668C506.667 221.364 507.977 218.545 509.116 216.209C509.401 215.582 509.686 214.927 509.971 214.244C510.312 213.503 510.768 212.791 511.338 212.107C511.965 211.367 512.762 210.626 513.73 209.886C514.756 209.088 516.123 208.291 517.832 207.493C519.085 206.867 520.595 206.183 522.361 205.442C524.184 204.702 525.95 204.018 527.659 203.392C529.425 202.765 531.02 202.252 532.444 201.854C533.868 201.398 534.893 201.17 535.52 201.17C536.09 201.17 536.375 201.284 536.375 201.512V201.683C536.375 201.74 536.318 201.882 536.204 202.11C535.862 202.68 535.235 203.933 534.324 205.87C533.412 207.75 532.273 210.142 530.906 213.047C529.596 215.896 528.114 219.171 526.462 222.874C524.867 226.52 523.215 230.394 521.506 234.495L542.014 233.726C542.584 233.726 542.755 234.068 542.527 234.751C542.299 235.435 541.872 236.233 541.245 237.144C540.618 238.056 539.878 238.995 539.023 239.964C538.226 240.932 537.542 241.673 536.973 242.186C536.859 242.299 536.631 242.413 536.289 242.527C535.947 242.641 535.52 242.698 535.007 242.698H518.088C516.038 247.654 514.072 252.667 512.192 257.737C510.312 262.807 508.632 267.621 507.151 272.178C505.67 276.736 504.473 280.923 503.562 284.739C502.708 288.556 502.28 291.689 502.28 294.139C502.28 294.48 502.451 294.651 502.793 294.651C503.42 294.651 504.36 294.31 505.613 293.626C506.866 292.885 508.262 291.945 509.8 290.806C511.395 289.667 513.075 288.414 514.841 287.046C516.607 285.679 518.288 284.34 519.883 283.03C521.478 281.663 522.902 280.438 524.155 279.356C525.465 278.217 526.462 277.362 527.146 276.792C527.659 277.305 528.257 277.96 528.94 278.758C529.681 279.555 530.365 280.296 530.991 280.979C529.738 282.233 528.171 283.771 526.292 285.594C524.412 287.36 522.361 289.183 520.139 291.062C517.974 292.942 515.696 294.822 513.303 296.702C510.968 298.582 508.66 300.263 506.382 301.744C504.16 303.225 502.081 304.421 500.144 305.333C498.207 306.244 496.584 306.7 495.273 306.7ZM532.615 306.7C531.76 306.7 530.678 306.386 529.368 305.76C528.057 305.19 526.804 304.45 525.608 303.538C524.412 302.684 523.386 301.715 522.532 300.633C521.677 299.55 521.25 298.497 521.25 297.471C521.82 294.965 522.589 292.088 523.557 288.841C524.526 285.594 525.579 282.29 526.719 278.929C527.801 275.568 528.969 272.292 530.222 269.102C531.418 265.855 532.501 262.978 533.469 260.472C534.495 257.965 535.378 255.943 536.118 254.405C536.859 252.867 537.343 252.098 537.571 252.098C537.913 252.098 538.767 252.468 540.134 253.208C541.501 253.949 542.926 254.861 544.407 255.943C545.945 256.968 547.312 258.079 548.508 259.275C549.705 260.415 550.303 261.412 550.303 262.266C550.303 262.437 550.274 262.665 550.217 262.95C550.16 263.178 550.075 263.491 549.961 263.89C549.505 265.314 548.907 266.994 548.167 268.931C547.483 270.868 546.742 272.89 545.945 274.998C545.147 277.049 544.35 279.128 543.552 281.236C542.755 283.287 542.043 285.223 541.416 287.046C540.789 288.869 540.277 290.464 539.878 291.832C539.479 293.199 539.28 294.196 539.28 294.822C539.28 295.164 539.451 295.335 539.792 295.335C540.419 295.335 541.359 294.965 542.612 294.224C543.866 293.484 545.29 292.515 546.885 291.319C548.537 290.123 550.246 288.812 552.012 287.388C553.778 285.964 555.458 284.568 557.053 283.201C558.705 281.777 560.186 280.495 561.497 279.356C562.807 278.217 563.804 277.362 564.487 276.792C565 277.305 565.598 277.96 566.282 278.758C567.022 279.555 567.706 280.296 568.333 280.979C567.079 282.233 565.513 283.771 563.633 285.594C561.753 287.36 559.702 289.183 557.48 291.062C555.316 292.942 553.037 294.822 550.645 296.702C548.309 298.582 546.03 300.263 543.809 301.744C541.587 303.225 539.508 304.421 537.571 305.333C535.634 306.244 533.982 306.7 532.615 306.7ZM566.453 226.036C566.396 226.264 566.168 226.833 565.769 227.745C565.427 228.599 565 229.625 564.487 230.821C563.975 231.96 563.376 233.185 562.693 234.495C562.066 235.748 561.44 236.916 560.813 237.999C560.186 239.081 559.588 239.992 559.019 240.733C558.449 241.417 557.993 241.758 557.651 241.758C556.626 241.701 555.373 241.388 553.892 240.818C552.467 240.249 551.072 239.622 549.705 238.938C548.394 238.198 547.255 237.486 546.287 236.802C545.375 236.119 544.919 235.634 544.919 235.35C544.919 234.153 545.261 232.615 545.945 230.735C546.628 228.799 547.426 226.947 548.337 225.181C549.249 223.358 550.16 221.792 551.072 220.481C552.04 219.171 552.781 218.516 553.293 218.516C554.319 218.516 555.572 218.858 557.053 219.542C558.534 220.168 559.958 220.909 561.326 221.763C562.75 222.618 563.946 223.472 564.915 224.327C565.94 225.124 566.453 225.694 566.453 226.036ZM573.972 293.284C573.972 294.993 574.599 295.848 575.852 295.848C577.162 295.848 578.9 294.822 581.064 292.771C583.229 290.664 585.479 288.015 587.815 284.825C587.701 284.198 587.616 283.657 587.559 283.201C587.559 282.688 587.559 282.233 587.559 281.834C587.559 280.695 587.673 279.356 587.9 277.818C588.185 276.223 588.84 274.428 589.866 272.435C590.549 270.896 591.375 269.387 592.344 267.906C593.141 266.596 594.11 265.2 595.249 263.719C596.388 262.181 597.642 260.757 599.009 259.446L599.521 258.934C600.091 259.617 600.832 260.557 601.743 261.753C602.712 262.893 603.652 264.089 604.563 265.342C605.531 266.539 606.357 267.649 607.041 268.675C607.782 269.7 608.237 270.412 608.408 270.811C608.408 273.261 607.952 275.71 607.041 278.16C606.187 280.609 605.019 283.03 603.538 285.423C606.956 285.195 610.117 284.34 613.022 282.859C615.985 281.321 619.061 278.843 622.251 275.425C622.764 275.938 623.419 276.65 624.216 277.562C625.071 278.416 625.754 279.157 626.267 279.783C623.875 282.29 621.51 284.369 619.175 286.021C616.896 287.673 614.589 288.983 612.253 289.952C609.975 290.92 607.639 291.632 605.247 292.088C602.854 292.487 600.404 292.686 597.898 292.686C595.961 294.737 593.882 296.617 591.66 298.326C589.438 300.035 587.16 301.516 584.824 302.769C582.546 304.022 580.267 304.991 577.988 305.674C575.71 306.358 573.545 306.7 571.494 306.7C569.785 306.7 568.019 306.187 566.196 305.162C564.373 304.136 562.721 302.883 561.24 301.402C559.759 299.864 558.534 298.24 557.566 296.531C556.597 294.822 556.113 293.313 556.113 292.002C556.113 287.673 556.711 283.372 557.908 279.1C559.047 274.827 560.87 270.84 563.376 267.137C565.826 263.377 568.959 260.073 572.776 257.225C576.65 254.376 581.235 252.212 586.533 250.73C586.704 250.617 586.989 250.531 587.388 250.474C587.843 250.417 588.214 250.389 588.499 250.389C589.296 250.389 590.122 250.702 590.977 251.329C591.888 251.898 592.714 252.553 593.455 253.294C594.252 254.035 594.907 254.775 595.42 255.516C595.933 256.199 596.189 256.655 596.189 256.883C596.075 257.168 595.648 257.538 594.907 257.994C594.167 258.392 593.17 259.104 591.917 260.13C590.663 261.155 589.182 262.636 587.473 264.573C585.764 266.453 583.884 268.96 581.833 272.093C578.757 276.707 576.678 280.894 575.596 284.654C574.513 288.357 573.972 291.233 573.972 293.284ZM645.237 260.728C644.553 262.551 643.87 264.402 643.186 266.282C642.502 268.162 641.819 270.099 641.135 272.093C644.724 267.991 647.8 264.659 650.364 262.095C652.984 259.475 655.177 257.424 656.943 255.943C658.766 254.462 660.219 253.465 661.301 252.952C662.441 252.382 663.324 252.098 663.95 252.098C664.691 252.098 665.802 252.468 667.283 253.208C668.764 253.949 670.245 254.861 671.726 255.943C673.264 257.025 674.574 258.136 675.657 259.275C676.796 260.415 677.366 261.412 677.366 262.266C677.366 262.437 677.337 262.665 677.28 262.95C677.223 263.178 677.138 263.491 677.024 263.89C676.568 265.314 675.97 266.994 675.229 268.931C674.546 270.868 673.805 272.89 673.008 274.998C672.21 277.049 671.413 279.128 670.615 281.236C669.818 283.287 669.106 285.223 668.479 287.046C667.852 288.869 667.34 290.464 666.941 291.832C666.542 293.199 666.343 294.196 666.343 294.822C666.343 295.164 666.514 295.335 666.855 295.335C667.482 295.335 668.422 294.965 669.675 294.224C670.929 293.484 672.353 292.515 673.948 291.319C675.6 290.123 677.309 288.812 679.075 287.388C680.841 285.964 682.521 284.568 684.116 283.201C685.768 281.777 687.249 280.495 688.56 279.356C689.87 278.217 690.867 277.362 691.55 276.792C692.12 277.305 692.747 277.96 693.43 278.758C694.114 279.555 694.769 280.296 695.396 280.979C694.142 282.233 692.576 283.771 690.696 285.594C688.816 287.36 686.765 289.183 684.543 291.062C682.379 292.942 680.1 294.822 677.708 296.702C675.372 298.582 673.093 300.263 670.872 301.744C668.65 303.225 666.571 304.421 664.634 305.333C662.697 306.244 661.073 306.7 659.763 306.7C658.909 306.7 657.826 306.386 656.516 305.76C655.206 305.19 653.924 304.45 652.671 303.538C651.475 302.684 650.449 301.715 649.595 300.633C648.74 299.55 648.313 298.497 648.313 297.471C648.826 295.136 649.509 292.487 650.364 289.524C651.275 286.562 652.244 283.543 653.269 280.467C654.294 277.334 655.348 274.257 656.431 271.238C657.57 268.162 658.652 265.342 659.678 262.779L659.507 262.95C658.424 264.26 656.858 265.997 654.807 268.162C652.813 270.27 650.535 273.004 647.971 276.365C645.408 279.669 642.702 283.685 639.854 288.414C637.005 293.085 634.214 298.639 631.479 305.076C631.138 305.874 630.824 306.5 630.54 306.956C630.255 307.412 629.714 307.64 628.916 307.64C627.948 307.64 626.837 307.355 625.583 306.785C624.387 306.272 623.162 305.56 621.909 304.649C620.599 303.794 619.317 302.826 618.064 301.744C616.754 300.661 615.586 299.579 614.561 298.497C614.561 298.155 614.731 297.186 615.073 295.591C615.358 293.996 615.785 292.002 616.355 289.61C616.925 287.16 617.637 284.397 618.491 281.321C619.346 278.188 620.314 274.913 621.396 271.495C622.479 268.077 623.675 264.602 624.985 261.07C626.239 257.481 627.606 254.035 629.087 250.73C631.479 251.87 634.128 253.265 637.034 254.917C639.996 256.569 642.73 258.506 645.237 260.728ZM689.841 278.416C691.152 277.163 692.661 275.739 694.37 274.144C696.022 272.549 697.674 270.811 699.326 268.931C701.035 267.051 702.602 265.029 704.026 262.864C705.507 260.7 706.675 258.364 707.529 255.857C707.757 254.547 708.099 253.18 708.555 251.756C709.067 250.275 709.609 248.936 710.178 247.74C710.805 246.543 711.403 245.547 711.973 244.749C712.542 243.951 713.055 243.553 713.511 243.553C714.194 243.951 715.22 244.721 716.587 245.86C717.954 246.942 719.321 248.11 720.688 249.363C722.056 250.617 723.252 251.784 724.277 252.867C725.36 253.892 725.901 254.519 725.901 254.747C725.217 257.367 724.875 259.731 724.875 261.839C724.932 263.947 725.103 266.026 725.388 268.077C725.73 270.127 726.072 272.321 726.414 274.656C726.812 276.935 727.012 279.584 727.012 282.603C727.012 284.426 726.698 286.534 726.072 288.926C725.502 291.262 724.477 293.37 722.996 295.25C725.901 293.541 728.778 291.632 731.626 289.524C734.474 287.36 737.009 285.337 739.231 283.458C741.851 281.236 744.358 279.014 746.75 276.792L750.596 280.979C748.716 282.745 746.665 284.625 744.443 286.619C742.279 288.613 740 290.578 737.607 292.515C735.272 294.452 732.879 296.303 730.43 298.069C727.98 299.835 725.559 301.402 723.167 302.769C720.774 304.136 718.467 305.219 716.245 306.016C714.023 306.814 711.944 307.212 710.007 307.212C708.355 307.212 706.532 306.814 704.539 306.016C702.545 305.219 700.665 304.25 698.899 303.111C697.133 301.972 695.595 300.775 694.285 299.522C692.974 298.269 692.205 297.215 691.978 296.36C691.978 296.246 692.091 296.019 692.319 295.677C692.547 295.278 692.832 294.879 693.174 294.48C693.459 294.082 693.772 293.74 694.114 293.455C694.399 293.113 694.626 292.942 694.797 292.942C695.139 292.942 695.823 293.199 696.848 293.711C697.874 294.224 699.583 294.48 701.975 294.48C703.285 294.48 704.396 294.139 705.308 293.455C706.276 292.771 707.074 291.86 707.7 290.721C708.327 289.581 708.783 288.271 709.067 286.79C709.352 285.309 709.495 283.742 709.495 282.09C709.495 279.698 709.381 277.391 709.153 275.169C708.925 272.89 708.669 270.697 708.384 268.589C707.415 269.729 706.305 270.925 705.051 272.178C703.798 273.431 702.516 274.685 701.206 275.938C699.953 277.134 698.671 278.331 697.361 279.527C696.108 280.666 694.968 281.692 693.943 282.603L689.841 278.416ZM808.103 257.396C807.875 258.421 807.533 259.788 807.078 261.497C806.679 263.206 806.223 264.972 805.71 266.795C805.198 268.561 804.657 270.213 804.087 271.751C803.574 273.232 803.147 274.229 802.805 274.742C802.122 274.742 800.583 274.77 798.191 274.827C795.855 274.827 793.092 274.856 789.902 274.913C786.712 274.913 783.323 274.941 779.734 274.998C776.145 275.055 772.812 275.083 769.736 275.083C766.66 275.083 764.04 275.055 761.875 274.998C759.767 274.941 758.542 274.856 758.201 274.742C758.372 274.058 758.599 273.061 758.884 271.751C759.226 270.441 759.596 269.074 759.995 267.649C760.394 266.225 760.793 264.887 761.191 263.633C761.59 262.38 761.932 261.526 762.217 261.07C762.673 260.899 764.04 260.7 766.318 260.472C768.654 260.187 771.445 259.902 774.692 259.617C777.996 259.332 781.5 259.076 785.203 258.848C788.962 258.563 792.466 258.335 795.713 258.165C798.96 257.937 801.723 257.766 804.001 257.652C806.337 257.481 807.704 257.396 808.103 257.396ZM940.378 193.479C937.587 193.366 934.767 193.223 931.919 193.052C929.071 192.881 926.023 192.71 922.776 192.54C919.529 192.369 915.94 192.226 912.009 192.112C908.136 191.998 903.749 191.941 898.85 191.941C892.584 191.941 886.517 192.112 880.649 192.454C874.782 192.739 868.971 193.309 863.218 194.163C857.464 195.018 851.711 196.214 845.957 197.752C840.203 199.29 834.307 201.312 828.269 203.819C830.719 210.655 832.684 217.348 834.165 223.899C835.646 230.451 836.785 236.688 837.583 242.613C838.438 248.537 839.007 254.091 839.292 259.275C839.577 264.459 839.719 269.131 839.719 273.289C839.719 277.22 839.634 280.695 839.463 283.714C839.292 286.676 839.093 289.154 838.865 291.148C838.637 293.541 838.352 295.591 838.01 297.3C840.745 290.806 843.394 283.942 845.957 276.707C848.577 269.415 851.056 262.209 853.391 255.088C855.727 247.911 857.891 240.989 859.885 234.324C861.879 227.659 863.617 221.678 865.098 216.38C866.636 211.082 867.889 206.667 868.857 203.135C869.826 199.546 870.452 197.268 870.737 196.299C871.991 197.325 873.5 198.635 875.266 200.23C877.089 201.825 878.912 203.477 880.735 205.186C882.558 206.895 884.238 208.547 885.776 210.142C887.371 211.68 888.596 212.962 889.451 213.987C888.027 219.285 886.147 225.124 883.811 231.504C881.475 237.885 878.883 244.464 876.035 251.243C873.244 258.022 870.31 264.83 867.234 271.666C864.158 278.444 861.167 284.882 858.262 290.977C855.356 297.072 852.651 302.627 850.144 307.64C847.694 312.653 845.672 316.783 844.077 320.03C843.223 319.175 842.169 318.007 840.916 316.526C839.662 315.045 838.381 313.536 837.07 311.998C835.76 310.516 834.535 309.121 833.396 307.811C832.314 306.5 831.516 305.56 831.003 304.991C831.117 304.307 831.317 303.139 831.602 301.487C831.943 299.778 832.257 297.671 832.542 295.164C832.883 292.601 833.168 289.638 833.396 286.277C833.624 282.916 833.738 279.185 833.738 275.083C833.738 270.412 833.538 265.399 833.14 260.044C832.741 254.633 831.943 249.021 830.747 243.211C829.608 237.4 827.956 231.419 825.791 225.267C823.626 219.114 820.806 212.905 817.332 206.639C817.275 206.639 817.246 206.61 817.246 206.553C817.189 206.496 817.161 206.354 817.161 206.126C817.161 205.556 817.36 204.787 817.759 203.819C818.158 202.793 818.67 201.711 819.297 200.572C819.98 199.375 820.693 198.208 821.433 197.068C822.231 195.872 822.971 194.847 823.655 193.992C823.94 193.65 825.307 192.853 827.756 191.6C830.206 190.289 833.567 188.751 837.839 186.985C842.169 185.219 847.296 183.34 853.22 181.346C859.202 179.352 865.81 177.529 873.044 175.877C880.279 174.168 888.055 172.772 896.372 171.69C904.746 170.608 913.462 170.066 922.52 170.066C922.918 170.522 923.545 171.291 924.399 172.374C925.311 173.399 926.336 174.624 927.476 176.048C928.615 177.415 929.811 178.925 931.064 180.577C932.375 182.172 933.628 183.767 934.824 185.362C936.021 186.9 937.103 188.381 938.071 189.805C939.04 191.229 939.809 192.454 940.378 193.479ZM903.806 293.284C903.806 294.993 904.433 295.848 905.686 295.848C906.996 295.848 908.734 294.822 910.898 292.771C913.063 290.664 915.313 288.015 917.649 284.825C917.535 284.198 917.45 283.657 917.393 283.201C917.393 282.688 917.393 282.233 917.393 281.834C917.393 280.695 917.507 279.356 917.734 277.818C918.019 276.223 918.674 274.428 919.7 272.435C920.383 270.896 921.209 269.387 922.178 267.906C922.975 266.596 923.944 265.2 925.083 263.719C926.222 262.181 927.476 260.757 928.843 259.446L929.355 258.934C929.925 259.617 930.666 260.557 931.577 261.753C932.546 262.893 933.486 264.089 934.397 265.342C935.365 266.539 936.191 267.649 936.875 268.675C937.616 269.7 938.071 270.412 938.242 270.811C938.242 273.261 937.786 275.71 936.875 278.16C936.021 280.609 934.853 283.03 933.372 285.423C936.79 285.195 939.951 284.34 942.856 282.859C945.819 281.321 948.895 278.843 952.085 275.425C952.598 275.938 953.253 276.65 954.05 277.562C954.905 278.416 955.588 279.157 956.101 279.783C953.708 282.29 951.344 284.369 949.009 286.021C946.73 287.673 944.423 288.983 942.087 289.952C939.809 290.92 937.473 291.632 935.081 292.088C932.688 292.487 930.238 292.686 927.732 292.686C925.795 294.737 923.716 296.617 921.494 298.326C919.272 300.035 916.994 301.516 914.658 302.769C912.38 304.022 910.101 304.991 907.822 305.674C905.544 306.358 903.379 306.7 901.328 306.7C899.619 306.7 897.853 306.187 896.03 305.162C894.207 304.136 892.555 302.883 891.074 301.402C889.593 299.864 888.368 298.24 887.4 296.531C886.431 294.822 885.947 293.313 885.947 292.002C885.947 287.673 886.545 283.372 887.742 279.1C888.881 274.827 890.704 270.84 893.21 267.137C895.66 263.377 898.793 260.073 902.61 257.225C906.484 254.376 911.069 252.212 916.367 250.73C916.538 250.617 916.823 250.531 917.222 250.474C917.677 250.417 918.048 250.389 918.333 250.389C919.13 250.389 919.956 250.702 920.811 251.329C921.722 251.898 922.548 252.553 923.289 253.294C924.086 254.035 924.741 254.775 925.254 255.516C925.767 256.199 926.023 256.655 926.023 256.883C925.909 257.168 925.482 257.538 924.741 257.994C924.001 258.392 923.004 259.104 921.75 260.13C920.497 261.155 919.016 262.636 917.307 264.573C915.598 266.453 913.718 268.96 911.667 272.093C908.591 276.707 906.512 280.894 905.43 284.654C904.347 288.357 903.806 291.233 903.806 293.284ZM1044.37 256.114C1044.03 256.513 1043.26 257.994 1042.06 260.557C1040.87 263.121 1039.41 266.425 1037.71 270.469C1036.05 274.514 1034.26 279.185 1032.32 284.483C1030.38 289.781 1028.48 295.392 1026.6 301.316C1024.72 307.184 1022.98 313.222 1021.38 319.432C1019.79 325.641 1018.51 331.679 1017.54 337.547C1016 338.003 1014.24 338.458 1012.24 338.914C1010.3 339.37 1008.37 339.797 1006.43 340.196C1004.49 340.595 1002.73 340.908 1001.13 341.136C999.538 341.421 998.37 341.563 997.629 341.563C998.655 337.177 999.652 332.99 1000.62 329.002C1001.65 325.014 1002.76 321.112 1003.95 317.295C1005.15 313.536 1006.46 309.804 1007.88 306.102C1009.36 302.399 1011.07 298.582 1013.01 294.651C1010.85 297.443 1008.54 300.149 1006.09 302.769C1003.7 305.389 1001.22 307.725 998.655 309.776C996.148 311.827 993.585 313.45 990.964 314.646C988.401 315.9 985.837 316.526 983.274 316.526C981.508 316.526 979.514 316.042 977.292 315.074C975.128 314.105 972.935 312.767 970.713 311.058C968.491 309.406 966.326 307.412 964.219 305.076C962.111 302.798 960.231 300.319 958.579 297.642C956.984 294.965 955.702 292.145 954.734 289.183C953.708 286.22 953.196 283.258 953.196 280.296C953.196 275.397 953.879 270.042 955.247 264.231C956.614 258.421 958.522 252.439 960.972 246.287C963.421 240.135 966.383 233.954 969.858 227.745C973.333 221.478 977.15 215.468 981.309 209.715C985.467 203.961 989.91 198.606 994.639 193.65C999.424 188.637 1004.38 184.279 1009.51 180.577C1014.63 176.874 1019.85 173.969 1025.14 171.861C1030.44 169.696 1035.74 168.614 1041.04 168.614C1043.03 168.614 1044.97 169.069 1046.85 169.981C1048.78 170.835 1050.58 171.946 1052.23 173.313C1053.94 174.624 1055.48 176.076 1056.85 177.671C1058.27 179.266 1059.47 180.748 1060.43 182.115C1061.57 183.767 1062.6 185.675 1063.51 187.84C1064.48 190.005 1064.96 192.169 1064.96 194.334C1064.96 197.98 1064.39 201.825 1063.25 205.87C1062.17 209.914 1060.66 213.93 1058.73 217.918C1056.79 221.906 1054.51 225.779 1051.89 229.539C1049.27 233.242 1046.45 236.574 1043.43 239.537L1028.39 225.523C1030.1 223.757 1032.15 221.478 1034.54 218.687C1036.94 215.896 1039.21 212.763 1041.38 209.288C1043.54 205.756 1045.4 202.024 1046.93 198.094C1048.47 194.106 1049.24 190.062 1049.24 185.96C1049.24 185.276 1049.21 184.507 1049.16 183.653C1049.1 182.798 1048.9 182.001 1048.56 181.26C1048.27 180.52 1047.79 179.893 1047.1 179.38C1046.48 178.868 1045.57 178.611 1044.37 178.611C1041.18 178.611 1037.68 179.808 1033.86 182.2C1030.1 184.593 1026.2 187.84 1022.15 191.941C1018.17 195.986 1014.12 200.743 1010.02 206.211C1005.97 211.623 1002.07 217.377 998.313 223.472C994.553 229.568 991.021 235.834 987.717 242.271C984.47 248.651 981.622 254.861 979.172 260.899C976.78 266.937 974.871 272.605 973.447 277.903C972.08 283.201 971.396 287.787 971.396 291.661C971.396 295.25 971.824 297.813 972.678 299.351C973.59 300.889 974.843 301.658 976.438 301.658C978.375 301.658 980.568 301.032 983.018 299.778C985.467 298.468 988.002 296.788 990.623 294.737C993.3 292.629 995.949 290.293 998.569 287.73C1001.25 285.11 1003.72 282.489 1006 279.869C1008.34 277.191 1010.42 274.628 1012.24 272.178C1014.12 269.729 1015.6 267.649 1016.68 265.94C1017.71 264.288 1018.59 262.579 1019.33 260.813C1020.07 259.048 1020.93 257.253 1021.9 255.43C1024.06 255.43 1026.06 255.459 1027.88 255.516C1029.76 255.573 1031.58 255.658 1033.35 255.772C1035.17 255.829 1036.96 255.886 1038.73 255.943C1040.5 256 1042.38 256.057 1044.37 256.114ZM1064.28 293.284C1064.28 294.993 1064.91 295.848 1066.16 295.848C1067.47 295.848 1069.21 294.822 1071.37 292.771C1073.54 290.664 1075.79 288.015 1078.12 284.825C1078.01 284.198 1077.92 283.657 1077.87 283.201C1077.87 282.688 1077.87 282.233 1077.87 281.834C1077.87 280.695 1077.98 279.356 1078.21 277.818C1078.49 276.223 1079.15 274.428 1080.17 272.435C1080.86 270.896 1081.68 269.387 1082.65 267.906C1083.45 266.596 1084.42 265.2 1085.56 263.719C1086.7 262.181 1087.95 260.757 1089.32 259.446L1089.83 258.934C1090.4 259.617 1091.14 260.557 1092.05 261.753C1093.02 262.893 1093.96 264.089 1094.87 265.342C1095.84 266.539 1096.67 267.649 1097.35 268.675C1098.09 269.7 1098.54 270.412 1098.72 270.811C1098.72 273.261 1098.26 275.71 1097.35 278.16C1096.49 280.609 1095.33 283.03 1093.85 285.423C1097.26 285.195 1100.42 284.34 1103.33 282.859C1106.29 281.321 1109.37 278.843 1112.56 275.425C1113.07 275.938 1113.73 276.65 1114.52 277.562C1115.38 278.416 1116.06 279.157 1116.57 279.783C1114.18 282.29 1111.82 284.369 1109.48 286.021C1107.2 287.673 1104.9 288.983 1102.56 289.952C1100.28 290.92 1097.95 291.632 1095.55 292.088C1093.16 292.487 1090.71 292.686 1088.21 292.686C1086.27 294.737 1084.19 296.617 1081.97 298.326C1079.75 300.035 1077.47 301.516 1075.13 302.769C1072.85 304.022 1070.57 304.991 1068.3 305.674C1066.02 306.358 1063.85 306.7 1061.8 306.7C1060.09 306.7 1058.33 306.187 1056.5 305.162C1054.68 304.136 1053.03 302.883 1051.55 301.402C1050.07 299.864 1048.84 298.24 1047.87 296.531C1046.91 294.822 1046.42 293.313 1046.42 292.002C1046.42 287.673 1047.02 283.372 1048.22 279.1C1049.35 274.827 1051.18 270.84 1053.68 267.137C1056.13 263.377 1059.27 260.073 1063.08 257.225C1066.96 254.376 1071.54 252.212 1076.84 250.73C1077.01 250.617 1077.3 250.531 1077.7 250.474C1078.15 250.417 1078.52 250.389 1078.81 250.389C1079.6 250.389 1080.43 250.702 1081.28 251.329C1082.2 251.898 1083.02 252.553 1083.76 253.294C1084.56 254.035 1085.21 254.775 1085.73 255.516C1086.24 256.199 1086.5 256.655 1086.5 256.883C1086.38 257.168 1085.96 257.538 1085.21 257.994C1084.47 258.392 1083.48 259.104 1082.22 260.13C1080.97 261.155 1079.49 262.636 1077.78 264.573C1076.07 266.453 1074.19 268.96 1072.14 272.093C1069.06 276.707 1066.99 280.894 1065.9 284.654C1064.82 288.357 1064.28 291.233 1064.28 293.284Z" fill="white"/>
<path d="M318 360.488C905.437 360.488 1224.54 381.485 1233 267" stroke="white" stroke-width="5"/>
<path d="M306.469 362L314.281 377.625H298.656L290.844 371.375H275.219L283.031 402.625H267.406L247.875 371.375L224.438 371.331C221.329 371.331 218.349 370.343 216.151 368.585C213.953 366.827 212.719 364.442 212.719 361.956C212.719 359.47 213.953 357.085 216.151 355.327C218.349 353.569 221.329 352.581 224.438 352.581L247.875 352.537L267.406 321.287H283.031L275.219 352.537H290.844L298.656 346.375H314.281L306.469 362Z" stroke="white" stroke-width="2" stroke-linecap="round" stroke-linejoin="round"/>
</svg>
